<svg width="150" height="55" viewBox="0 0 150 55" fill="none" xmlns="http://www.w3.org/2000/svg">
<path d="M36.0604 35.5238L40.5553 49.2094C40.8817 50.2031 42.238 50.2794 42.6706 49.3282L45.1509 43.8742C45.2668 43.6194 45.47 43.4161 45.7227 43.3021L51.3234 40.7759C52.2765 40.346 52.2065 38.9501 51.2153 38.6206L37.4959 34.0594C36.6062 33.7636 35.7644 34.6226 36.0604 35.5238Z" fill="#262626" stroke="url(#paint0_linear_743_299)"/>
<path d="M51 31.9841V10.0346C51 6.7018 48.3246 4 45.0244 4H7.97561C4.67538 4 2 6.70181 2 10.0346V40.9654C2 44.2982 4.67538 47 7.97561 47H32.0758" stroke="url(#paint1_linear_743_299)" stroke-width="2"/>
<path d="M2.1626 11.6163H49.9757" stroke="url(#paint2_linear_743_299)" stroke-width="2" stroke-linecap="round"/>
<path d="M8.37858 8.16088C8.37858 7.51974 7.84611 7 7.18929 7C6.53246 7 6 7.51974 6 8.16088C6 8.80202 6.53246 9.32176 7.18929 9.32176C7.84611 9.32176 8.37858 8.80202 8.37858 8.16088Z" fill="#5F04A8"/>
<path d="M13.1354 8.16088C13.1354 7.51974 12.6029 7 11.9461 7C11.2893 7 10.7568 7.51974 10.7568 8.16088C10.7568 8.80202 11.2893 9.32176 11.9461 9.32176C12.6029 9.32176 13.1354 8.80202 13.1354 8.16088Z" fill="#5F04A8"/>
<path d="M17.8927 8.16088C17.8927 7.51974 17.3603 7 16.7034 7C16.0466 7 15.5142 7.51974 15.5142 8.16088C15.5142 8.80202 16.0466 9.32176 16.7034 9.32176C17.3603 9.32176 17.8927 8.80202 17.8927 8.16088Z" fill="#5F04A8"/>
<path d="M63.014 22V13.42H64.665V22H63.014ZM64.08 22V20.648H69.423V22H64.08ZM64.08 18.269V17.021H68.786V18.269H64.08ZM64.08 14.772V13.42H69.397V14.772H64.08ZM74.1339 22.169C73.5705 22.169 73.0679 22.1127 72.6259 22C72.1839 21.896 71.8069 21.7313 71.4949 21.506C71.1915 21.272 70.9575 20.9903 70.7929 20.661C70.6282 20.323 70.5415 19.9287 70.5329 19.478L71.9889 19.049C71.9802 19.465 72.0669 19.8117 72.2489 20.089C72.4309 20.3577 72.6909 20.557 73.0289 20.687C73.3755 20.817 73.7699 20.882 74.2119 20.882C74.6365 20.882 74.9919 20.83 75.2779 20.726C75.5725 20.622 75.7935 20.4833 75.9409 20.31C76.0882 20.128 76.1619 19.9243 76.1619 19.699C76.1619 19.4477 76.0709 19.2483 75.8889 19.101C75.7069 18.945 75.4599 18.8193 75.1479 18.724C74.8445 18.62 74.4979 18.5247 74.1079 18.438C73.6832 18.3427 73.2672 18.2387 72.8599 18.126C72.4612 18.0133 72.0972 17.8617 71.7679 17.671C71.4385 17.4803 71.1742 17.2377 70.9749 16.943C70.7842 16.6397 70.6889 16.2583 70.6889 15.799C70.6889 15.279 70.8189 14.8327 71.0789 14.46C71.3389 14.0787 71.7159 13.784 72.2099 13.576C72.7125 13.3593 73.3105 13.251 74.0039 13.251C74.6885 13.251 75.2865 13.355 75.7979 13.563C76.3092 13.7623 76.7079 14.057 76.9939 14.447C77.2799 14.837 77.4315 15.2963 77.4489 15.825L75.9539 16.241C75.9539 15.955 75.9062 15.708 75.8109 15.5C75.7242 15.2833 75.5942 15.1057 75.4209 14.967C75.2475 14.8197 75.0395 14.7113 74.7969 14.642C74.5629 14.5727 74.2942 14.538 73.9909 14.538C73.6355 14.538 73.3235 14.5857 73.0549 14.681C72.7949 14.7763 72.5955 14.9107 72.4569 15.084C72.3182 15.2487 72.2489 15.4437 72.2489 15.669C72.2489 15.9463 72.3529 16.1673 72.5609 16.332C72.7689 16.4967 73.0419 16.631 73.3799 16.735C73.7265 16.8303 74.1035 16.9257 74.5109 17.021C74.8835 17.099 75.2562 17.1943 75.6289 17.307C76.0102 17.4197 76.3612 17.567 76.6819 17.749C77.0025 17.931 77.2582 18.178 77.4489 18.49C77.6482 18.7933 77.7479 19.179 77.7479 19.647C77.7479 20.1497 77.6135 20.5917 77.3449 20.973C77.0762 21.3543 76.6732 21.649 76.1359 21.857C75.5985 22.065 74.9312 22.169 74.1339 22.169ZM80.4319 19.504V18.191H82.4469C83.1402 18.191 83.6559 18.0567 83.9939 17.788C84.3405 17.5107 84.5139 17.0557 84.5139 16.423C84.5139 15.8597 84.3535 15.435 84.0329 15.149C83.7122 14.863 83.2182 14.72 82.5509 14.72H80.4319V13.42H82.5899C83.1445 13.42 83.6429 13.485 84.0849 13.615C84.5269 13.745 84.9039 13.9357 85.2159 14.187C85.5279 14.4383 85.7662 14.759 85.9309 15.149C86.0955 15.5303 86.1779 15.9723 86.1779 16.475C86.1779 17.1337 86.0262 17.6883 85.7229 18.139C85.4282 18.5897 84.9862 18.932 84.3969 19.166C83.8162 19.3913 83.0925 19.504 82.2259 19.504H80.4319ZM79.3529 22V13.42H80.9909V22H79.3529ZM87.6175 22V13.42H89.2815V22H87.6175ZM91.3119 22V13.42H93.4569L97.5649 19.803H97.6819L97.5779 13.42H99.1769V22H97.2269L92.9369 15.37H92.8069L92.9109 22H91.3119ZM102.008 22V20.648H104.517C105.037 20.648 105.466 20.531 105.804 20.297C106.15 20.063 106.406 19.7293 106.571 19.296C106.744 18.8627 106.831 18.3427 106.831 17.736C106.831 17.2247 106.774 16.7827 106.662 16.41C106.558 16.0373 106.397 15.734 106.181 15.5C105.964 15.2573 105.691 15.0753 105.362 14.954C105.032 14.8327 104.647 14.772 104.205 14.772H102.008V13.42H104.153C105.167 13.42 105.994 13.589 106.636 13.927C107.286 14.265 107.762 14.7503 108.066 15.383C108.378 16.007 108.534 16.761 108.534 17.645C108.534 18.269 108.46 18.8237 108.312 19.309C108.165 19.7857 107.966 20.1973 107.715 20.544C107.463 20.882 107.169 21.1593 106.831 21.376C106.493 21.5927 106.129 21.753 105.739 21.857C105.357 21.9523 104.963 22 104.556 22H102.008ZM101.202 22V13.42H102.84V22H101.202ZM113.893 22.169C113.269 22.169 112.715 22.0693 112.229 21.87C111.744 21.6707 111.328 21.3847 110.981 21.012C110.643 20.6307 110.383 20.167 110.201 19.621C110.019 19.075 109.928 18.451 109.928 17.749C109.928 16.735 110.102 15.8987 110.448 15.24C110.795 14.5727 111.272 14.0743 111.878 13.745C112.485 13.4157 113.174 13.251 113.945 13.251C114.543 13.251 115.085 13.3507 115.57 13.55C116.056 13.7407 116.467 14.0267 116.805 14.408C117.152 14.7807 117.421 15.2487 117.611 15.812C117.802 16.3667 117.897 17.0037 117.897 17.723C117.897 18.4423 117.802 19.0793 117.611 19.634C117.429 20.18 117.165 20.6437 116.818 21.025C116.472 21.3977 116.051 21.6837 115.557 21.883C115.072 22.0737 114.517 22.169 113.893 22.169ZM113.932 20.843C114.426 20.843 114.838 20.726 115.167 20.492C115.505 20.2493 115.761 19.9027 115.934 19.452C116.116 19.0013 116.207 18.451 116.207 17.801C116.207 17.1337 116.116 16.5617 115.934 16.085C115.752 15.6083 115.488 15.2487 115.141 15.006C114.803 14.7547 114.387 14.629 113.893 14.629C113.425 14.629 113.018 14.7503 112.671 14.993C112.333 15.227 112.073 15.578 111.891 16.046C111.709 16.5053 111.618 17.0687 111.618 17.736C111.618 18.2387 111.67 18.685 111.774 19.075C111.878 19.4563 112.026 19.777 112.216 20.037C112.416 20.297 112.658 20.4963 112.944 20.635C113.239 20.7737 113.568 20.843 113.932 20.843ZM119.597 22V13.42H121.235V22H119.597ZM119.974 22V20.596H124.992V22H119.974ZM125.775 22L128.739 13.42H131.144L134.108 22H132.314L130.039 14.733H129.857L127.556 22H125.775ZM127.348 20.232V19.075H132.756V20.232H127.348Z" fill="white"/>
<path d="M68.48 38.26C67.6133 38.26 66.84 38.1733 66.16 38C65.48 37.84 64.9 37.5867 64.42 37.24C63.9533 36.88 63.5933 36.4467 63.34 35.94C63.0867 35.42 62.9533 34.8133 62.94 34.12L65.18 33.46C65.1667 34.1 65.3 34.6333 65.58 35.06C65.86 35.4733 66.26 35.78 66.78 35.98C67.3133 36.18 67.92 36.28 68.6 36.28C69.2533 36.28 69.8 36.2 70.24 36.04C70.6933 35.88 71.0333 35.6667 71.26 35.4C71.4867 35.12 71.6 34.8067 71.6 34.46C71.6 34.0733 71.46 33.7667 71.18 33.54C70.9 33.3 70.52 33.1067 70.04 32.96C69.5733 32.8 69.04 32.6533 68.44 32.52C67.7867 32.3733 67.1467 32.2133 66.52 32.04C65.9067 31.8667 65.3467 31.6333 64.84 31.34C64.3333 31.0467 63.9267 30.6733 63.62 30.22C63.3267 29.7533 63.18 29.1667 63.18 28.46C63.18 27.66 63.38 26.9733 63.78 26.4C64.18 25.8133 64.76 25.36 65.52 25.04C66.2933 24.7067 67.2133 24.54 68.28 24.54C69.3333 24.54 70.2533 24.7 71.04 25.02C71.8267 25.3267 72.44 25.78 72.88 26.38C73.32 26.98 73.5533 27.6867 73.58 28.5L71.28 29.14C71.28 28.7 71.2067 28.32 71.06 28C70.9267 27.6667 70.7267 27.3933 70.46 27.18C70.1933 26.9533 69.8733 26.7867 69.5 26.68C69.14 26.5733 68.7267 26.52 68.26 26.52C67.7133 26.52 67.2333 26.5933 66.82 26.74C66.42 26.8867 66.1133 27.0933 65.9 27.36C65.6867 27.6133 65.58 27.9133 65.58 28.26C65.58 28.6867 65.74 29.0267 66.06 29.28C66.38 29.5333 66.8 29.74 67.32 29.9C67.8533 30.0467 68.4333 30.1933 69.06 30.34C69.6333 30.46 70.2067 30.6067 70.78 30.78C71.3667 30.9533 71.9067 31.18 72.4 31.46C72.8933 31.74 73.2867 32.12 73.58 32.6C73.8867 33.0667 74.04 33.66 74.04 34.38C74.04 35.1533 73.8333 35.8333 73.42 36.42C73.0067 37.0067 72.3867 37.46 71.56 37.78C70.7333 38.1 69.7067 38.26 68.48 38.26ZM79.133 38V24.8H81.673V38H79.133ZM75.213 26.94V24.8H85.613V26.94H75.213ZM93.283 38.26C92.5096 38.26 91.8096 38.18 91.183 38.02C90.5696 37.86 90.0296 37.6267 89.563 37.32C89.1096 37.0133 88.7296 36.64 88.423 36.2C88.1163 35.76 87.883 35.26 87.723 34.7C87.5763 34.14 87.503 33.5333 87.503 32.88V24.8H90.043V32.78C90.043 33.5133 90.163 34.12 90.403 34.6C90.643 35.0667 91.003 35.42 91.483 35.66C91.963 35.8867 92.563 36 93.283 36C94.0163 36 94.6163 35.8867 95.083 35.66C95.563 35.4333 95.923 35.08 96.163 34.6C96.403 34.12 96.523 33.5133 96.523 32.78V24.8H99.043V32.88C99.043 34.5867 98.5563 35.9133 97.583 36.86C96.623 37.7933 95.1896 38.26 93.283 38.26ZM103.316 38V35.92H107.176C107.976 35.92 108.636 35.74 109.156 35.38C109.689 35.02 110.082 34.5067 110.336 33.84C110.602 33.1733 110.736 32.3733 110.736 31.44C110.736 30.6533 110.649 29.9733 110.476 29.4C110.316 28.8267 110.069 28.36 109.736 28C109.402 27.6267 108.982 27.3467 108.476 27.16C107.969 26.9733 107.376 26.88 106.696 26.88H103.316V24.8H106.616C108.176 24.8 109.449 25.06 110.436 25.58C111.436 26.1 112.169 26.8467 112.636 27.82C113.116 28.78 113.356 29.94 113.356 31.3C113.356 32.26 113.242 33.1133 113.016 33.86C112.789 34.5933 112.482 35.2267 112.096 35.76C111.709 36.28 111.256 36.7067 110.736 37.04C110.216 37.3733 109.656 37.62 109.056 37.78C108.469 37.9267 107.862 38 107.236 38H103.316ZM102.076 38V24.8H104.596V38H102.076ZM115.962 38V24.8H118.522V38H115.962ZM127.246 38.26C126.286 38.26 125.433 38.1067 124.686 37.8C123.939 37.4933 123.299 37.0533 122.766 36.48C122.246 35.8933 121.846 35.18 121.566 34.34C121.286 33.5 121.146 32.54 121.146 31.46C121.146 29.9 121.413 28.6133 121.946 27.6C122.479 26.5733 123.213 25.8067 124.146 25.3C125.079 24.7933 126.139 24.54 127.326 24.54C128.246 24.54 129.079 24.6933 129.826 25C130.573 25.2933 131.206 25.7333 131.726 26.32C132.259 26.8933 132.673 27.6133 132.966 28.48C133.259 29.3333 133.406 30.3133 133.406 31.42C133.406 32.5267 133.259 33.5067 132.966 34.36C132.686 35.2 132.279 35.9133 131.746 36.5C131.213 37.0733 130.566 37.5133 129.806 37.82C129.059 38.1133 128.206 38.26 127.246 38.26ZM127.306 36.22C128.066 36.22 128.699 36.04 129.206 35.68C129.726 35.3067 130.119 34.7733 130.386 34.08C130.666 33.3867 130.806 32.54 130.806 31.54C130.806 30.5133 130.666 29.6333 130.386 28.9C130.106 28.1667 129.699 27.6133 129.166 27.24C128.646 26.8533 128.006 26.66 127.246 26.66C126.526 26.66 125.899 26.8467 125.366 27.22C124.846 27.58 124.446 28.12 124.166 28.84C123.886 29.5467 123.746 30.4133 123.746 31.44C123.746 32.2133 123.826 32.9 123.986 33.5C124.146 34.0867 124.373 34.58 124.666 34.98C124.973 35.38 125.346 35.6867 125.786 35.9C126.239 36.1133 126.746 36.22 127.306 36.22Z" fill="#8C00FF"/>
<defs>
<linearGradient id="paint0_linear_743_299" x1="44" y1="34" x2="44" y2="50" gradientUnits="userSpaceOnUse">
<stop stop-color="#430377"/>
<stop offset="1" stop-color="#7C06DD"/>
</linearGradient>
<linearGradient id="paint1_linear_743_299" x1="26.5" y1="4" x2="26.5" y2="47" gradientUnits="userSpaceOnUse">
<stop stop-color="white"/>
<stop offset="1" stop-color="#CACACA"/>
</linearGradient>
<linearGradient id="paint2_linear_743_299" x1="26.0691" y1="11.6163" x2="26.0691" y2="12.6163" gradientUnits="userSpaceOnUse">
<stop stop-color="white"/>
<stop offset="1" stop-color="#CACACA"/>
</linearGradient>
</defs>
</svg>
