<svg width="138" height="38" viewBox="0 0 138 38" fill="none" xmlns="http://www.w3.org/2000/svg">
<path d="M138 0H0C0 0 37.3047 38.7353 68.8226 37.9894C99.5117 37.2631 138 0 138 0Z" fill="#05060A"/>
<path d="M67.8835 18.3954L52.6696 3.75532C52.2408 3.34278 52 2.78324 52 2.19982C52 1.61639 52.2408 1.05686 52.6696 0.64431C53.0983 0.231764 53.6797 -1.37649e-06 54.286 -1.35571e-06C54.8923 -1.33493e-06 55.4738 0.231764 55.9025 0.64431L69.4981 13.7307L83.0975 0.647972C83.3097 0.4437 83.5618 0.281662 83.8391 0.171111C84.1165 0.0605595 84.4137 0.0036593 84.7139 0.00365931C85.0142 0.00365932 85.3114 0.0605596 85.5888 0.171111C85.8661 0.281662 86.1182 0.4437 86.3304 0.647972C86.5427 0.852244 86.7111 1.09475 86.826 1.36164C86.9409 1.62854 87 1.91459 87 2.20348C87 2.49236 86.9409 2.77842 86.826 3.04531C86.7111 3.31221 86.5427 3.55471 86.3304 3.75899L71.1165 18.399C70.9042 18.6035 70.6521 18.7657 70.3746 18.8762C70.097 18.9867 69.7996 19.0435 69.4992 19.0431C69.1989 19.0428 68.9015 18.9854 68.6243 18.8742C68.347 18.7631 68.0953 18.6004 67.8835 18.3954Z" fill="#8012DA"/>
</svg>
