<svg width="1106" height="177" viewBox="0 0 1106 177" fill="none" xmlns="http://www.w3.org/2000/svg">
<g filter="url(#filter0_f_381_10)">
<path d="M127.297 160.074C126.841 160.074 126.385 159.749 125.93 159.098C125.474 158.447 125.051 158.121 124.66 158.121C124.335 158.186 124.042 158.284 123.781 158.414C123.521 158.479 123.228 158.512 122.902 158.512C122.056 158.512 121.275 158.121 120.559 157.34C119.908 156.559 119.126 156.07 118.215 155.875C117.108 155.549 116.424 155.094 116.164 154.508C115.773 153.531 115.285 152.62 114.699 151.773C113.137 149.69 112.355 146.728 112.355 142.887C112.811 135.79 113.983 129.085 115.871 122.77C116.978 118.798 118.02 114.794 118.996 110.758C120.624 103.727 122.577 96.7604 124.855 89.8594C126.092 85.6927 127.036 81.4284 127.688 77.0664L128.762 71.0117L127.98 70.7188L126.613 72.5742C125.507 73.8763 124.595 75.2435 123.879 76.6758C118.345 87.418 112.323 97.8346 105.812 107.926L100.344 116.715C97.9349 120.556 95.7214 124.495 93.7031 128.531C91.75 132.177 89.276 135.367 86.2812 138.102L85.5977 138.883C85.0768 139.339 84.5885 139.566 84.1328 139.566C83.7422 139.566 83.4167 139.436 83.1562 139.176C81.5938 137.678 79.4779 136.93 76.8086 136.93L73.6836 137.027C71.9909 137.027 70.8841 136.214 70.3633 134.586C68.4102 129.638 67.4336 125.016 67.4336 120.719L67.6289 107.34V90.3477C67.6289 88.9805 67.5638 87.6458 67.4336 86.3438C67.3034 85.9531 66.9128 85.6927 66.2617 85.5625C66.0664 85.5625 65.9036 85.6927 65.7734 85.9531C64.0807 88.5573 62.7461 91.3568 61.7695 94.3516C59.6862 100.536 57.082 106.428 53.957 112.027L50.7344 118.277C50.5391 118.668 50.2461 119.026 49.8555 119.352C49.1393 120.003 48.7812 120.589 48.7812 121.109L48.8789 122.184C48.8789 122.77 48.4883 123.355 47.707 123.941L47.0234 124.527C46.6328 124.918 46.4375 125.927 46.4375 127.555L46.2422 129.312C46.112 130.224 45.819 130.777 45.3633 130.973C44.0612 131.624 43.2148 132.438 42.8242 133.414C42.4336 134.391 42.2057 135.497 42.1406 136.734C42.0755 137.906 41.7826 139.111 41.2617 140.348C40.0247 142.757 39.3737 145.328 39.3086 148.062C39.3086 150.797 38.1693 152.88 35.8906 154.312C35.3698 154.573 35.0117 154.833 34.8164 155.094C33.7096 157.633 32.1471 158.902 30.1289 158.902C29.1523 158.902 28.0456 158.544 26.8086 157.828L25.832 158.023C25.181 158.023 24.6927 157.828 24.3672 157.438C23.9766 156.982 23.651 156.493 23.3906 155.973C22.7396 154.736 22.0234 154.085 21.2422 154.02C21.0469 153.889 20.8516 153.238 20.6562 152.066C20.4609 151.35 19.8099 150.699 18.7031 150.113C18.2474 149.918 17.8568 149.658 17.5312 149.332C17.1406 149.007 16.9453 148.583 16.9453 148.062C17.2708 145.003 18.0195 142.138 19.1914 139.469C21.0794 134.586 23.0651 129.736 25.1484 124.918L29.1523 115.152C31.9518 108.056 34.849 100.992 37.8438 93.9609C42.0104 84.2604 45.9167 74.4622 49.5625 64.5664C51.9714 58.2513 54.6406 52.0664 57.5703 46.0117C59.3281 42.2357 61.0208 38.4922 62.6484 34.7812C64.0807 31.5911 65.5456 28.3685 67.043 25.1133C68.5404 21.8581 70.6562 20.2305 73.3906 20.2305C74.5625 20.2305 75.8971 20.5234 77.3945 21.1094C77.5898 21.1745 77.8503 21.3372 78.1758 21.5977C78.5013 21.793 78.7943 21.8906 79.0547 21.8906C79.3802 21.8255 79.7057 21.7604 80.0312 21.6953C80.3568 21.5651 80.7799 21.5 81.3008 21.5C82.4727 21.5 83.4818 21.7604 84.3281 22.2812C85.2396 22.8021 86.151 23.4206 87.0625 24.1367L88.625 25.4062C90.513 26.3828 91.457 28.0104 91.457 30.2891V35.3672C91.457 36.8646 91.5547 38.1016 91.75 39.0781L92.043 40.8359C92.043 41.5521 91.8151 42.2357 91.3594 42.8867C90.9036 43.5378 90.6758 44.2539 90.6758 45.0352C90.6758 45.4258 90.806 45.849 91.0664 46.3047C91.3919 46.7604 91.5547 47.2487 91.5547 47.7695C91.5547 48.681 91.2292 49.625 90.5781 50.6016C90.2526 51.1875 89.9922 51.7409 89.7969 52.2617L89.6016 53.2383C89.0156 54.8008 88.7227 56.4609 88.7227 58.2188V90.0547C88.7227 91.8125 89.1784 92.7891 90.0898 92.9844C90.4805 92.9844 90.7734 92.8542 90.9688 92.5938L95.0703 85.9531C98.651 80.1589 102.167 74.332 105.617 68.4727C106.333 67.431 107.212 66.5521 108.254 65.8359C109.751 64.7292 110.663 63.6224 110.988 62.5156L111.477 60.5625C111.737 58.7396 112.355 57.0794 113.332 55.582C115.806 52.0664 118.28 48.3229 120.754 44.3516C123.033 40.6406 125.409 37.0273 127.883 33.5117C130.357 29.931 133.091 26.7409 136.086 23.9414C136.607 23.5508 137.193 23.1276 137.844 22.6719C138.495 22.2161 139.178 21.6953 139.895 21.1094C141.392 19.6771 143.345 18.9609 145.754 18.9609C146.665 18.9609 147.674 19.0586 148.781 19.2539C149.888 19.3841 151.06 20.1003 152.297 21.4023C152.883 21.9883 153.566 22.444 154.348 22.7695C154.934 22.9648 155.422 23.2578 155.812 23.6484C156.268 23.974 156.529 24.5599 156.594 25.4062C156.594 25.7969 156.691 26.2201 156.887 26.6758C157.147 27.1315 157.473 27.4896 157.863 27.75C159.1 28.4661 159.914 29.3125 160.305 30.2891C160.76 31.2005 160.988 32.2096 160.988 33.3164L160.793 35.8555C160.728 38.5247 160.533 41.0312 160.207 43.375C159.947 45.6536 159.263 48.0625 158.156 50.6016C157.701 51.7083 157.44 52.9128 157.375 54.2148C156.919 59.0326 155.585 63.8828 153.371 68.7656C152.72 70.1328 152.362 71.5651 152.297 73.0625C152.167 74.0391 151.971 74.9831 151.711 75.8945L150.344 80.9727C148.716 86.3763 147.316 91.8451 146.145 97.3789C145.428 100.634 144.549 103.857 143.508 107.047C142.466 110.237 141.62 113.46 140.969 116.715C140.448 118.993 139.406 121.044 137.844 122.867C136.346 124.625 135.598 126.546 135.598 128.629L135.793 131.949C135.793 134.684 135.467 137.32 134.816 139.859C134.23 142.398 133.872 144.938 133.742 147.477C133.742 148.193 133.612 148.844 133.352 149.43L131.789 153.141L128.957 159.293C128.827 159.488 128.566 159.651 128.176 159.781C127.85 159.977 127.557 160.074 127.297 160.074ZM127.492 66.6172C127.753 66.6172 127.98 66.5846 128.176 66.5195C128.371 66.4544 128.501 66.3893 128.566 66.3242C128.436 66.1289 128.371 65.9336 128.371 65.7383L127.297 66.2266L127.492 66.6172ZM121.926 75.3086L121.73 74.7227L121.535 75.2109L121.926 75.3086ZM33.7422 113.297C34.7839 112.255 35.6628 110.921 36.3789 109.293C37.1602 107.6 38.0716 105.224 39.1133 102.164C40.8711 96.5 44.9401 86.1159 51.3203 71.0117C46.3724 80.7773 42.694 88.3294 40.2852 93.668C37.9414 99.0065 36.3138 103.076 35.4023 105.875C34.556 108.674 34.0026 111.148 33.7422 113.297ZM83.4492 98.7461L83.3516 89.7617C83.3516 78.1081 83.5794 69.9701 84.0352 65.3477C84.2305 62.6784 84.3281 60.4648 84.3281 58.707C84.3281 56.2982 84.0352 54.3451 83.4492 52.8477C82.9935 54.6706 82.6029 56.6888 82.2773 58.9023C82.0169 61.0508 81.8867 64.1107 81.8867 68.082C81.8867 74.5273 82.4076 84.7487 83.4492 98.7461ZM121.145 119.352C122.056 118.18 122.74 116.715 123.195 114.957C123.716 113.199 124.302 110.725 124.953 107.535C125.995 101.676 128.697 90.8685 133.059 75.1133C129.478 85.3997 126.841 93.3424 125.148 98.9414C123.456 104.54 122.349 108.805 121.828 111.734C121.372 114.599 121.145 117.138 121.145 119.352ZM175.824 158.707L174.262 158.609C172.699 158.609 171.658 158.186 171.137 157.34C170.03 155.777 168.728 154.801 167.23 154.41C165.733 153.954 164.138 153.694 162.445 153.629L161.957 153.531C160.004 153.466 158.995 152.587 158.93 150.895V150.699C158.93 148.551 158.018 146.988 156.195 146.012C155.284 145.491 154.828 144.84 154.828 144.059C154.828 143.603 154.958 143.115 155.219 142.594C157.172 138.167 158.572 133.544 159.418 128.727C160.004 125.992 160.688 123.323 161.469 120.719C162.315 117.594 163.324 114.469 164.496 111.344C165.928 107.698 167.23 104.02 168.402 100.309C169.379 97.1185 170.388 93.9935 171.43 90.9336C172.536 87.6133 173.578 84.2604 174.555 80.875C176.247 75.4062 178.461 69.4818 181.195 63.1016C182.237 60.4974 183.148 57.8932 183.93 55.2891C184.711 52.6198 185.102 49.8854 185.102 47.0859L185.004 45.3281C185.004 44.2214 184.385 43.4401 183.148 42.9844C180.935 42.2682 179.828 41.1615 179.828 39.6641C179.828 39.3385 179.893 38.9805 180.023 38.5898C180.284 37.8737 180.414 37.1901 180.414 36.5391C180.414 35.3672 179.926 34.293 178.949 33.3164C178.624 32.8607 178.461 32.4375 178.461 32.0469C178.461 31.2005 178.917 30.5169 179.828 29.9961C183.083 27.5872 186.794 25.8294 190.961 24.7227C198.578 22.7044 206.293 21.4349 214.105 20.9141C215.603 20.849 217.068 20.5885 218.5 20.1328C219.997 19.612 221.527 19.3516 223.09 19.3516L225.629 19.5469C227.842 19.5469 230.023 19.2539 232.172 18.668C235.948 18.082 239.757 17.7891 243.598 17.7891C245.29 17.7891 246.918 17.8216 248.48 17.8867C250.043 17.8867 251.443 18.2122 252.68 18.8633C253.982 19.4492 255.219 20.1654 256.391 21.0117H256.488C257.27 21.5977 257.888 22.444 258.344 23.5508C258.799 24.5924 259.027 25.6341 259.027 26.6758C259.027 27.9779 258.637 28.987 257.855 29.7031C255.642 31.3958 254.503 33.5768 254.438 36.2461C254.307 37.2227 254.112 38.069 253.852 38.7852C253.526 38.7852 253.168 38.6875 252.777 38.4922C252.452 38.2969 252.094 38.1992 251.703 38.1992C251.443 38.1992 251.215 38.2643 251.02 38.3945C250.824 38.5247 250.629 38.6549 250.434 38.7852C250.303 38.9154 250.173 39.1107 250.043 39.3711C250.043 39.6966 250.108 39.9245 250.238 40.0547C250.368 40.1198 251.573 40.2174 253.852 40.3477L253.949 40.543C252.908 41.194 251.703 41.5846 250.336 41.7148C249.034 41.7799 247.797 42.1055 246.625 42.6914C246.169 42.9518 245.681 43.082 245.16 43.082C244.118 43.082 243.174 42.6914 242.328 41.9102C241.026 40.7383 239.594 40.1523 238.031 40.1523C237.12 40.1523 234.874 40.6406 231.293 41.6172C227.061 42.9193 222.764 43.8633 218.402 44.4492C216.645 44.6445 215.212 45.8815 214.105 48.1602C212.543 50.8294 211.176 53.5638 210.004 56.3633C209.288 58.1862 208.539 59.9766 207.758 61.7344C205.87 65.5104 204.47 69.4818 203.559 73.6484V74.2344C203.559 75.2109 204.079 75.7643 205.121 75.8945L206.781 75.9922L207.855 75.8945C210.004 75.1784 212.217 74.8203 214.496 74.8203H216.449C218.337 74.8203 220.16 74.6576 221.918 74.332C222.374 74.2018 222.829 74.1367 223.285 74.1367C225.694 74.1367 227.126 75.6992 227.582 78.8242C227.647 79.8008 227.81 80.7448 228.07 81.6562C228.331 82.5026 228.884 83.2839 229.73 84C230.967 85.1719 231.586 86.4414 231.586 87.8086C231.586 89.5664 230.577 91.1289 228.559 92.4961C223.871 95.0352 218.956 96.7279 213.812 97.5742C212.315 97.8346 209.874 98.3555 206.488 99.1367C203.884 99.7227 201.247 100.276 198.578 100.797C194.737 101.318 192.165 103.368 190.863 106.949C190.277 108.642 189.626 110.27 188.91 111.832C187.738 114.371 186.827 117.04 186.176 119.84C185.655 122.249 184.483 125.797 182.66 130.484V130.875C182.66 131.591 183.116 132.047 184.027 132.242L185.395 132.34C187.022 131.949 188.65 131.689 190.277 131.559C191.97 131.428 193.533 131.201 194.965 130.875C196.658 130.419 198.383 130.126 200.141 129.996C202.354 129.931 204.503 129.508 206.586 128.727C207.367 128.466 208.181 128.336 209.027 128.336H213.129C215.082 128.336 217.003 128.01 218.891 127.359C219.672 127.164 220.518 127.066 221.43 127.066H224.066C225.434 127.262 226.117 127.978 226.117 129.215C226.117 130.647 226.085 131.786 226.02 132.633L225.922 133.805H226.117V135.367L225.922 135.27C226.573 135.921 226.898 136.572 226.898 137.223C226.898 138.134 226.605 138.98 226.02 139.762C226.02 139.892 225.987 139.99 225.922 140.055C225.661 140.576 225.531 140.999 225.531 141.324C225.531 142.171 226.15 142.659 227.387 142.789C228.298 142.919 228.754 143.342 228.754 144.059L228.656 144.547C228.656 145.068 228.298 145.523 227.582 145.914C224.132 147.281 220.811 148.876 217.621 150.699C215.603 151.611 213.357 152.197 210.883 152.457L208.148 152.945C200.922 154.573 194.281 155.842 188.227 156.754C186.664 156.949 185.102 157.242 183.539 157.633C181 158.349 178.428 158.707 175.824 158.707ZM225.141 97.7695L224.652 97.5742L225.141 97.2812V97.7695ZM166.742 110.074C167.784 109.098 168.663 107.796 169.379 106.168C170.095 104.54 170.974 102.229 172.016 99.2344C173.708 93.7005 177.68 83.6094 183.93 68.9609C179.112 78.401 175.531 85.7253 173.188 90.9336C170.844 96.1419 169.249 100.113 168.402 102.848C167.621 105.582 167.068 107.991 166.742 110.074ZM213.324 41.8125L214.789 41.7148C216.221 41.5195 218.207 41.0964 220.746 40.4453C225.108 39.1432 234.223 37.2878 248.09 34.8789L238.324 35.9531C227.257 37.2552 219.802 38.5573 215.961 39.8594C214.594 40.3151 213.096 40.901 211.469 41.6172L213.324 41.8125ZM194.477 96.793L195.941 96.6953C197.309 96.5 199.262 96.0768 201.801 95.4258C206.228 94.1237 215.342 92.2682 229.145 89.8594L219.379 91.0312C208.376 92.2682 200.922 93.5378 197.016 94.8398C195.714 95.2956 194.249 95.8815 192.621 96.5977L194.477 96.793ZM188.031 153.434L189.496 153.336C190.928 153.141 192.914 152.717 195.453 152.066C199.815 150.764 208.93 148.909 222.797 146.5L213.031 147.574C201.964 148.876 194.509 150.178 190.668 151.48C189.301 151.936 187.803 152.522 186.176 153.238L188.031 153.434ZM284.117 47.2812C285.745 47.2812 287.991 47.0859 290.855 46.6953C295.803 45.849 305.471 45.0352 319.859 44.2539L309.41 44.1562C293.655 44.1562 284.02 45.0352 280.504 46.793C281.546 47.1185 282.75 47.2812 284.117 47.2812ZM287.047 160.66C286.396 160.66 285.745 160.497 285.094 160.172L284.996 160.27C284.996 159.749 284.898 159.423 284.703 159.293C284.508 159.228 284.117 159.195 283.531 159.195C283.01 159.195 282.685 159.065 282.555 158.805C282.49 158.544 282.457 158.251 282.457 157.926C282.457 157.405 282.49 156.949 282.555 156.559C282.62 156.103 282.652 155.615 282.652 155.094C282.652 153.922 282.197 153.303 281.285 153.238C280.829 153.238 280.309 153.499 279.723 154.02C279.202 154.54 278.941 155.094 278.941 155.68C278.941 155.94 278.974 156.168 279.039 156.363C279.169 156.559 279.234 156.786 279.234 157.047C279.169 158.349 278.421 159.065 276.988 159.195C276.533 159.195 276.077 159.065 275.621 158.805C275.165 158.479 274.938 158.121 274.938 157.73C274.938 154.996 273.993 153.01 272.105 151.773C271.65 151.513 271.422 151.155 271.422 150.699C271.422 150.243 271.617 149.788 272.008 149.332C273.635 147.574 274.449 145.589 274.449 143.375L274.352 141.52C274.352 141.064 274.449 140.641 274.645 140.25C274.905 139.794 275.068 139.404 275.133 139.078C277.281 130.549 280.081 122.281 283.531 114.273C285.81 109 287.372 103.368 288.219 97.3789C289.391 91.8451 290.888 86.474 292.711 81.2656C296.031 71.3047 299.417 61.5716 302.867 52.0664L303.062 51.0898C303.062 50.1133 302.704 49.4948 301.988 49.2344C301.272 48.974 300.263 48.8438 298.961 48.8438C295.51 49.4948 292.027 49.8203 288.512 49.8203C285.842 49.8854 283.173 50.0807 280.504 50.4062C279.137 50.7318 277.802 50.8945 276.5 50.8945C275.393 50.8945 274.71 50.569 274.449 49.918C274.254 49.2669 274.124 48.3555 274.059 47.1836C274.059 46.2721 274.189 45.556 274.449 45.0352C274.775 44.4492 274.938 43.9284 274.938 43.4727C274.938 42.431 274.156 41.6497 272.594 41.1289C272.138 39.5013 270.934 38.0039 268.98 36.6367C267.743 35.7904 267.125 35.0091 267.125 34.293C267.125 33.9023 267.32 33.5117 267.711 33.1211C273.18 28.4987 280.178 25.9922 288.707 25.6016C291.441 25.4714 294.566 25.4062 298.082 25.4062C302.118 25.4062 305.732 25.0156 308.922 24.2344C311.07 23.7786 313.284 23.4857 315.562 23.3555C318.232 23.2904 320.966 22.9323 323.766 22.2812C329.039 21.3047 334.28 20.1328 339.488 18.7656C341.897 18.3099 344.371 18.082 346.91 18.082H348.18C349.417 18.082 350.719 18.0169 352.086 17.8867C353.388 17.8867 354.755 18.375 356.188 19.3516C356.904 19.8073 357.555 20.1979 358.141 20.5234C358.792 20.7839 359.117 21.0117 359.117 21.207L358.922 22.4766C358.922 23.388 359.15 24.2995 359.605 25.2109C360.126 26.1224 360.387 27.0664 360.387 28.043C360.387 28.8242 360.191 29.6706 359.801 30.582C359.41 31.4284 359.215 32.3724 359.215 33.4141C359.215 34.651 359.638 35.888 360.484 37.125C360.745 37.5807 360.875 38.1016 360.875 38.6875C360.875 40.3151 360.094 41.6823 358.531 42.7891C357.034 43.8958 355.309 44.4492 353.355 44.4492L345.25 44.3516C338.74 44.4167 335.191 44.5469 334.605 44.7422C334.085 44.8724 333.629 45.2305 333.238 45.8164C332.913 46.4023 332.522 47.3138 332.066 48.5508C328.811 56.6888 325.523 64.8268 322.203 72.9648C314.911 90.9987 308.661 108.772 303.453 126.285C301.76 131.949 299.97 137.581 298.082 143.18C297.626 144.677 297.333 146.272 297.203 147.965C296.812 153.824 293.427 158.056 287.047 160.66ZM301.012 114.566C302.053 113.46 302.9 112.027 303.551 110.27C304.267 108.512 305.113 106.005 306.09 102.75C307.652 96.8906 311.461 86.0833 317.516 70.3281C312.828 80.5495 309.345 88.4596 307.066 94.0586C304.788 99.5924 303.258 103.824 302.477 106.754C301.695 109.684 301.207 112.288 301.012 114.566ZM375.613 54.7031L376.199 54.6055L377.859 53.1406V52.0664L376.785 52.457L375.613 54.7031ZM376.297 137.516C377.404 137.516 378.934 136.962 380.887 135.855C384.077 134.033 386.844 131.656 389.188 128.727C389.448 128.336 389.773 127.945 390.164 127.555C392.443 124.755 394.559 121.793 396.512 118.668C397.228 117.561 398.042 116.487 398.953 115.445C401.427 112.646 402.762 110.009 402.957 107.535C405.366 105.191 407.026 102.424 407.938 99.2344C408.328 98.1927 408.784 97.151 409.305 96.1094C413.992 85.237 417.378 74.0716 419.461 62.6133L419.754 59.5859V59.0977C419.754 57.2747 420.145 55.4844 420.926 53.7266C421.186 53.0755 421.316 52.4896 421.316 51.9688C421.316 50.9922 420.796 49.7552 419.754 48.2578C419.038 47.151 418.452 45.7839 417.996 44.1562C417.801 42.5938 417.215 41.3893 416.238 40.543C415.522 39.957 414.708 39.6641 413.797 39.6641C413.211 39.6641 412.625 39.8594 412.039 40.25L411.062 40.7383C408.719 41.9753 406.668 43.6354 404.91 45.7188C403.348 47.9974 401.753 50.2435 400.125 52.457C395.893 57.9258 392.15 63.7526 388.895 69.9375C387.462 73.1276 385.509 74.7227 383.035 74.7227L381.961 74.625C381.31 74.625 380.887 74.9831 380.691 75.6992C379.845 78.4336 378.836 81.1354 377.664 83.8047C376.362 86.7995 375.255 89.8919 374.344 93.082C374.018 94.319 373.628 95.556 373.172 96.793C372.716 97.9648 372.293 99.1693 371.902 100.406C371.577 101.643 371.414 102.945 371.414 104.312C371.414 105.029 371.479 105.647 371.609 106.168C371.74 106.624 371.805 107.112 371.805 107.633C371.805 108.154 371.707 108.674 371.512 109.195C370.73 110.823 370.34 112.516 370.34 114.273L370.438 118.473C370.438 119.84 370.21 120.979 369.754 121.891C369.363 122.802 369.168 123.714 369.168 124.625C369.168 126.383 369.493 128.141 370.145 129.898C370.6 131.331 370.893 132.763 371.023 134.195C371.219 135.628 371.772 136.539 372.684 136.93C373.595 137.32 374.799 137.516 376.297 137.516ZM377.371 159.488C371.186 159.488 365.359 157.6 359.891 153.824C357.938 152.522 355.333 148.714 352.078 142.398C350.516 139.273 349.441 135.986 348.855 132.535C348.66 131.103 348.367 129.703 347.977 128.336C347.195 125.016 346.805 121.793 346.805 118.668C346.805 117.04 346.967 115.51 347.293 114.078C347.098 112.516 347 110.986 347 109.488C347 105.191 347.586 101.057 348.758 97.0859C354.552 77.6849 360.867 63.3294 367.703 54.0195C368.615 52.6523 369.396 51.2526 370.047 49.8203C371.284 47.151 373.009 44.8398 375.223 42.8867C377.371 37.7435 380.822 33.8372 385.574 31.168C386.811 30.2565 387.723 29.1497 388.309 27.8477C389.415 25.7643 391.173 24.3971 393.582 23.7461C395.535 23.2253 396.837 22.4766 397.488 21.5C398.139 20.5234 399.148 19.9375 400.516 19.7422C405.529 18.4401 409.988 17.7891 413.895 17.7891C420.275 17.7891 426.622 20.1979 432.938 25.0156C434.76 26.513 436.16 28.3359 437.137 30.4844C439.871 35.4974 441.727 40.4453 442.703 45.3281C442.312 46.1745 442.117 47.0534 442.117 47.9648C442.117 49.1367 442.28 50.3086 442.605 51.4805C442.931 52.6523 443.094 53.9544 443.094 55.3867C443.094 56.819 443.126 58.056 443.191 59.0977C443.257 60.0742 443.289 61.0508 443.289 62.0273C443.289 63.2643 443.159 64.5339 442.898 65.8359C441.987 70.5234 441.531 75.4388 441.531 80.582C441.531 81.5586 441.499 82.1445 441.434 82.3398C440.197 85.3997 439.318 88.5573 438.797 91.8125C438.081 95.9792 437.495 98.3229 437.039 98.8438C436.583 99.2995 436.355 99.7552 436.355 100.211C436.29 103.01 435.672 105.582 434.5 107.926C433.393 110.204 432.091 112.385 430.594 114.469C429.812 115.641 428.999 116.943 428.152 118.375C427.371 119.742 426.492 121.174 425.516 122.672C424.604 124.104 423.725 125.569 422.879 127.066C420.665 130.908 417.964 134.326 414.773 137.32C413.667 138.427 412.69 139.664 411.844 141.031C410.997 142.333 409.923 143.57 408.621 144.742C403.738 148.844 398.693 152.327 393.484 155.191C388.276 158.056 382.905 159.488 377.371 159.488ZM355.398 112.516C356.375 111.344 357.189 109.879 357.84 108.121C358.491 106.298 359.207 103.792 359.988 100.602C361.421 94.6771 364.839 83.707 370.242 67.6914C365.945 78.1081 362.755 86.1484 360.672 91.8125C358.654 97.4766 357.286 101.773 356.57 104.703C355.919 107.633 355.529 110.237 355.398 112.516ZM453.047 160.953C452.591 160.953 452.331 160.79 452.266 160.465C451.68 159.098 450.768 158.023 449.531 157.242C447.969 156.07 447.057 154.866 446.797 153.629C446.602 152.848 445.951 152.294 444.844 151.969C443.672 151.643 443.086 151.188 443.086 150.602L443.184 150.211C443.77 149.234 444.062 148.323 444.062 147.477C444.062 146.435 443.704 145.426 442.988 144.449L442.793 143.766C442.858 143.31 442.923 142.887 442.988 142.496C442.988 142.105 443.118 141.65 443.379 141.129C444.941 136.897 446.081 132.568 446.797 128.141C447.318 125.602 447.904 123.095 448.555 120.621L449.727 116.129C451.419 109.228 453.6 102.424 456.27 95.7188C457.441 92.9193 458.418 90.0547 459.199 87.125C459.785 84.9766 460.436 82.8607 461.152 80.7773L462.129 78.043C462.845 75.5039 463.854 73.0299 465.156 70.6211C466.198 68.6029 466.751 66.4219 466.816 64.0781C466.947 61.0833 467.598 58.1536 468.77 55.2891C470.007 52.3594 472.057 49.4948 474.922 46.6953L475.117 45.2305C472.969 44.7747 471.536 44.4167 470.82 44.1562L469.941 43.9609C469.225 43.7656 468.249 43.668 467.012 43.668C465.449 43.668 464.57 42.8542 464.375 41.2266C464.375 39.9896 464.115 38.9154 463.594 38.0039C463.138 37.0924 462.454 36.2135 461.543 35.3672C460.306 34.2604 459.688 33.056 459.688 31.7539C459.688 30.7773 459.98 29.8659 460.566 29.0195C461.152 28.1732 461.999 27.5547 463.105 27.1641C464.928 26.5781 466.719 25.8945 468.477 25.1133C470.234 24.2669 472.057 23.5182 473.945 22.8672C475.833 22.2161 477.852 21.8906 480 21.8906C480.326 21.8906 480.586 21.8255 480.781 21.6953C482.93 20.5885 485.111 19.8724 487.324 19.5469C489.538 19.2214 491.784 19.0586 494.062 19.0586L510.469 19.1562C514.375 19.1562 518.021 19.8398 521.406 21.207C524.792 22.5742 528.079 24.2669 531.27 26.2852C535.632 29.2799 539.212 32.8932 542.012 37.125C543.053 38.5573 544.128 39.9245 545.234 41.2266C547.122 43.7005 548.164 46.6953 548.359 50.2109L548.75 53.6289C549.401 56.819 549.727 60.0417 549.727 63.2969C549.596 66.8776 549.206 70.4583 548.555 74.0391C545.951 85.6276 541.263 96.2721 534.492 105.973C531.628 110.074 528.828 114.241 526.094 118.473C523.294 122.509 520.039 126.122 516.328 129.312L512.52 133.023C508.939 136.214 505 138.753 500.703 140.641C498.229 141.812 495.788 143.147 493.379 144.645L491.914 145.621C489.896 146.793 488.561 148.062 487.91 149.43C487.259 150.732 486.25 151.578 484.883 151.969C484.102 152.164 483.32 152.424 482.539 152.75C481.823 153.076 480.293 153.499 477.949 154.02C473.587 154.736 469.323 155.973 465.156 157.73C463.333 158.837 461.348 159.391 459.199 159.391L457.441 159.293C456.139 159.293 454.967 159.749 453.926 160.66C453.665 160.855 453.372 160.953 453.047 160.953ZM473.75 133.219L474.336 133.121L475.508 132.828C480.195 130.615 484.655 128.076 488.887 125.211C493.118 122.346 496.797 118.733 499.922 114.371C500.638 113.46 501.452 112.613 502.363 111.832C503.34 111.051 504.577 109.586 506.074 107.438L506.66 106.656C510.892 100.602 514.44 94.2865 517.305 87.7109C520.234 81.1354 522.936 74.4297 525.41 67.5938C527.103 63.2969 527.949 59.6836 527.949 56.7539C527.949 55.9727 527.884 55.224 527.754 54.5078V47.8672C527.754 46.8906 527.526 46.0443 527.07 45.3281C526.615 44.5469 526.094 43.8307 525.508 43.1797C524.922 42.4635 524.368 41.6823 523.848 40.8359H521.211C520.299 40.8359 519.486 40.9661 518.77 41.2266C516.816 41.9427 514.896 42.3008 513.008 42.3008L509.199 42.2031C506.595 42.2031 504.154 42.7565 501.875 43.8633C500.573 44.4492 499.661 45.4258 499.141 46.793L496.211 54.8008C489.896 72.3789 486.185 83.2188 485.078 87.3203C484.362 89.9245 482.995 94.3841 480.977 100.699C477.526 111.181 474.889 120.003 473.066 127.164L471.992 131.559C471.992 132.014 472.155 132.405 472.48 132.73C472.871 133.056 473.294 133.219 473.75 133.219ZM502.559 39.3711C504.707 39.3711 507.051 39.1758 509.59 38.7852L512.91 38.3945L511.055 37.125C510.143 36.474 509.329 35.9531 508.613 35.5625C507.962 35.1719 507.246 34.9766 506.465 34.9766C503.665 34.9766 501.745 35.3021 500.703 35.9531C499.727 36.5391 499.238 37.125 499.238 37.7109C499.238 38.6224 500.345 39.1758 502.559 39.3711ZM452.949 110.367C453.991 109.326 454.87 107.958 455.586 106.266C456.367 104.508 457.311 102.066 458.418 98.9414C460.176 93.1471 464.342 82.5677 470.918 67.2031C465.905 77.1641 462.161 84.8789 459.688 90.3477C457.214 95.7513 455.521 99.8854 454.609 102.75C453.763 105.615 453.21 108.154 452.949 110.367ZM585.168 54.7031L585.754 54.6055L587.414 53.1406V52.0664L586.34 52.457L585.168 54.7031ZM585.852 137.516C586.958 137.516 588.488 136.962 590.441 135.855C593.632 134.033 596.398 131.656 598.742 128.727C599.003 128.336 599.328 127.945 599.719 127.555C601.997 124.755 604.113 121.793 606.066 118.668C606.783 117.561 607.596 116.487 608.508 115.445C610.982 112.646 612.316 110.009 612.512 107.535C614.921 105.191 616.581 102.424 617.492 99.2344C617.883 98.1927 618.339 97.151 618.859 96.1094C623.547 85.237 626.932 74.0716 629.016 62.6133L629.309 59.5859V59.0977C629.309 57.2747 629.699 55.4844 630.48 53.7266C630.741 53.0755 630.871 52.4896 630.871 51.9688C630.871 50.9922 630.35 49.7552 629.309 48.2578C628.592 47.151 628.007 45.7839 627.551 44.1562C627.355 42.5938 626.77 41.3893 625.793 40.543C625.077 39.957 624.263 39.6641 623.352 39.6641C622.766 39.6641 622.18 39.8594 621.594 40.25L620.617 40.7383C618.273 41.9753 616.223 43.6354 614.465 45.7188C612.902 47.9974 611.307 50.2435 609.68 52.457C605.448 57.9258 601.704 63.7526 598.449 69.9375C597.017 73.1276 595.064 74.7227 592.59 74.7227L591.516 74.625C590.865 74.625 590.441 74.9831 590.246 75.6992C589.4 78.4336 588.391 81.1354 587.219 83.8047C585.917 86.7995 584.81 89.8919 583.898 93.082C583.573 94.319 583.182 95.556 582.727 96.793C582.271 97.9648 581.848 99.1693 581.457 100.406C581.132 101.643 580.969 102.945 580.969 104.312C580.969 105.029 581.034 105.647 581.164 106.168C581.294 106.624 581.359 107.112 581.359 107.633C581.359 108.154 581.262 108.674 581.066 109.195C580.285 110.823 579.895 112.516 579.895 114.273L579.992 118.473C579.992 119.84 579.764 120.979 579.309 121.891C578.918 122.802 578.723 123.714 578.723 124.625C578.723 126.383 579.048 128.141 579.699 129.898C580.155 131.331 580.448 132.763 580.578 134.195C580.773 135.628 581.327 136.539 582.238 136.93C583.15 137.32 584.354 137.516 585.852 137.516ZM586.926 159.488C580.741 159.488 574.914 157.6 569.445 153.824C567.492 152.522 564.888 148.714 561.633 142.398C560.07 139.273 558.996 135.986 558.41 132.535C558.215 131.103 557.922 129.703 557.531 128.336C556.75 125.016 556.359 121.793 556.359 118.668C556.359 117.04 556.522 115.51 556.848 114.078C556.652 112.516 556.555 110.986 556.555 109.488C556.555 105.191 557.141 101.057 558.312 97.0859C564.107 77.6849 570.422 63.3294 577.258 54.0195C578.169 52.6523 578.951 51.2526 579.602 49.8203C580.839 47.151 582.564 44.8398 584.777 42.8867C586.926 37.7435 590.376 33.8372 595.129 31.168C596.366 30.2565 597.277 29.1497 597.863 27.8477C598.97 25.7643 600.728 24.3971 603.137 23.7461C605.09 23.2253 606.392 22.4766 607.043 21.5C607.694 20.5234 608.703 19.9375 610.07 19.7422C615.083 18.4401 619.543 17.7891 623.449 17.7891C629.829 17.7891 636.177 20.1979 642.492 25.0156C644.315 26.513 645.715 28.3359 646.691 30.4844C649.426 35.4974 651.281 40.4453 652.258 45.3281C651.867 46.1745 651.672 47.0534 651.672 47.9648C651.672 49.1367 651.835 50.3086 652.16 51.4805C652.486 52.6523 652.648 53.9544 652.648 55.3867C652.648 56.819 652.681 58.056 652.746 59.0977C652.811 60.0742 652.844 61.0508 652.844 62.0273C652.844 63.2643 652.714 64.5339 652.453 65.8359C651.542 70.5234 651.086 75.4388 651.086 80.582C651.086 81.5586 651.053 82.1445 650.988 82.3398C649.751 85.3997 648.872 88.5573 648.352 91.8125C647.635 95.9792 647.049 98.3229 646.594 98.8438C646.138 99.2995 645.91 99.7552 645.91 100.211C645.845 103.01 645.227 105.582 644.055 107.926C642.948 110.204 641.646 112.385 640.148 114.469C639.367 115.641 638.553 116.943 637.707 118.375C636.926 119.742 636.047 121.174 635.07 122.672C634.159 124.104 633.28 125.569 632.434 127.066C630.22 130.908 627.518 134.326 624.328 137.32C623.221 138.427 622.245 139.664 621.398 141.031C620.552 142.333 619.478 143.57 618.176 144.742C613.293 148.844 608.247 152.327 603.039 155.191C597.831 158.056 592.46 159.488 586.926 159.488ZM564.953 112.516C565.93 111.344 566.743 109.879 567.395 108.121C568.046 106.298 568.762 103.792 569.543 100.602C570.975 94.6771 574.393 83.707 579.797 67.6914C575.5 78.1081 572.31 86.1484 570.227 91.8125C568.208 97.4766 566.841 101.773 566.125 104.703C565.474 107.633 565.083 110.237 564.953 112.516ZM665.238 160.367C664.262 160.367 663.48 160.042 662.895 159.391C662.374 158.74 661.885 157.958 661.43 157.047C660.974 156.07 660.388 155.159 659.672 154.312C659.021 153.401 658.044 152.652 656.742 152.066C655.375 151.415 654.236 150.471 653.324 149.234C652.348 147.997 651.469 146.663 650.688 145.23L649.613 143.375L649.418 142.594L651.957 130.191C652.022 129.671 652.185 129.247 652.445 128.922C655.505 124.69 657.719 120.035 659.086 114.957L659.965 112.418L661.234 108.316C662.732 104.215 663.969 99.9505 664.945 95.5234C665.987 91.3568 667.68 87.3854 670.023 83.6094C671.195 81.7865 671.911 80.1914 672.172 78.8242C672.628 75.7643 673.441 72.8021 674.613 69.9375C675.395 67.9844 676.111 65.7057 676.762 63.1016C677.022 61.7344 677.413 60.3672 677.934 59C678.52 57.6328 679.431 56.4284 680.668 55.3867L680.863 55.2891L681.059 54.8984C682.947 53.401 684.086 51.0898 684.477 47.9648C685.128 43.9935 686.039 40.0872 687.211 36.2461C687.862 33.8372 688.48 31.3958 689.066 28.9219C689.587 26.7083 690.596 24.4948 692.094 22.2812C693.591 20.0677 695.382 18.9609 697.465 18.9609C697.79 18.9609 698.083 19.026 698.344 19.1562C700.753 19.8724 703.129 20.6862 705.473 21.5977C706.84 21.9883 707.686 22.9323 708.012 24.4297V24.5273C708.077 24.8529 708.142 25.2109 708.207 25.6016C708.272 25.9271 708.435 26.1875 708.695 26.3828C710.323 27.9453 711.137 29.7031 711.137 31.6562C711.137 32.8932 710.941 34.1628 710.551 35.4648C708.142 45.1654 705.342 54.4427 702.152 63.2969C698.962 72.0859 695.577 80.9727 691.996 89.957L688.871 98.0625C688.415 99.4297 687.797 100.895 687.016 102.457C684.997 106.168 683.435 110.042 682.328 114.078C681.286 118.049 680.375 122.086 679.594 126.188L679.496 126.383C679.496 126.513 679.529 126.708 679.594 126.969C679.724 127.229 679.822 127.587 679.887 128.043C682.491 122.314 684.574 116.585 686.137 110.855L686.234 110.367C686.495 109.391 686.788 108.837 687.113 108.707C687.504 108.577 687.764 108.512 687.895 108.512C688.025 108.577 688.188 108.74 688.383 109C688.578 109.195 688.676 109.358 688.676 109.488C688.285 110.79 687.927 112.125 687.602 113.492C687.146 115.641 686.495 117.757 685.648 119.84C684.932 121.337 684.314 122.835 683.793 124.332C683.272 125.764 683.012 127.262 683.012 128.824L683.207 130.875C684.249 131.396 685.258 131.656 686.234 131.656C687.081 131.656 687.829 131.526 688.48 131.266C690.564 130.484 692.68 130.094 694.828 130.094H695.316C696.358 130.094 697.4 130.029 698.441 129.898C704.105 129.247 709.704 128.466 715.238 127.555C716.866 127.294 718.526 127.164 720.219 127.164C721.911 127.164 723.474 127.359 724.906 127.75C726.339 128.076 727.152 129.182 727.348 131.07C727.348 132.372 727.413 133.447 727.543 134.293C727.738 135.139 728.161 135.953 728.812 136.734C729.008 136.995 729.105 137.223 729.105 137.418C729.105 137.743 728.943 138.004 728.617 138.199C728.357 138.395 728.064 138.59 727.738 138.785C726.957 139.111 726.566 139.534 726.566 140.055C726.566 140.185 726.697 140.348 726.957 140.543C727.217 140.673 727.543 140.868 727.934 141.129C729.822 142.236 730.766 143.049 730.766 143.57C730.766 143.831 730.668 144.156 730.473 144.547C730.342 144.938 730.245 145.361 730.18 145.816C730.049 147.118 729.398 147.965 728.227 148.355C727.12 148.681 725.98 149.039 724.809 149.43C720.251 150.992 715.499 152.099 710.551 152.75C706.905 153.206 703.259 153.824 699.613 154.605C697.074 155.191 694.535 155.712 691.996 156.168C689.457 156.559 686.918 157.047 684.379 157.633C681.84 158.219 679.236 158.74 676.566 159.195C673.962 159.651 670.87 159.879 667.289 159.879C666.508 160.204 665.824 160.367 665.238 160.367ZM708.793 29.9961L709.184 29.8984L708.793 29.7031V29.9961ZM662.406 111.148C663.448 110.107 664.327 108.74 665.043 107.047C665.824 105.354 666.736 102.978 667.777 99.918C669.535 94.1888 673.637 83.7396 680.082 68.5703C675.134 78.3359 671.456 85.9206 669.047 91.3242C666.638 96.7279 664.978 100.862 664.066 103.727C663.22 106.526 662.667 109 662.406 111.148ZM684.379 155.973L685.941 155.875C687.374 155.68 689.392 155.257 691.996 154.605C696.553 153.238 705.993 151.285 720.316 148.746L710.16 149.918C698.767 151.285 691.052 152.652 687.016 154.02C685.648 154.475 684.118 155.061 682.426 155.777L684.379 155.973ZM769.918 54.7031L770.504 54.6055L772.164 53.1406V52.0664L771.09 52.457L769.918 54.7031ZM770.602 137.516C771.708 137.516 773.238 136.962 775.191 135.855C778.382 134.033 781.148 131.656 783.492 128.727C783.753 128.336 784.078 127.945 784.469 127.555C786.747 124.755 788.863 121.793 790.816 118.668C791.533 117.561 792.346 116.487 793.258 115.445C795.732 112.646 797.066 110.009 797.262 107.535C799.671 105.191 801.331 102.424 802.242 99.2344C802.633 98.1927 803.089 97.151 803.609 96.1094C808.297 85.237 811.682 74.0716 813.766 62.6133L814.059 59.5859V59.0977C814.059 57.2747 814.449 55.4844 815.23 53.7266C815.491 53.0755 815.621 52.4896 815.621 51.9688C815.621 50.9922 815.1 49.7552 814.059 48.2578C813.342 47.151 812.757 45.7839 812.301 44.1562C812.105 42.5938 811.52 41.3893 810.543 40.543C809.827 39.957 809.013 39.6641 808.102 39.6641C807.516 39.6641 806.93 39.8594 806.344 40.25L805.367 40.7383C803.023 41.9753 800.973 43.6354 799.215 45.7188C797.652 47.9974 796.057 50.2435 794.43 52.457C790.198 57.9258 786.454 63.7526 783.199 69.9375C781.767 73.1276 779.814 74.7227 777.34 74.7227L776.266 74.625C775.615 74.625 775.191 74.9831 774.996 75.6992C774.15 78.4336 773.141 81.1354 771.969 83.8047C770.667 86.7995 769.56 89.8919 768.648 93.082C768.323 94.319 767.932 95.556 767.477 96.793C767.021 97.9648 766.598 99.1693 766.207 100.406C765.882 101.643 765.719 102.945 765.719 104.312C765.719 105.029 765.784 105.647 765.914 106.168C766.044 106.624 766.109 107.112 766.109 107.633C766.109 108.154 766.012 108.674 765.816 109.195C765.035 110.823 764.645 112.516 764.645 114.273L764.742 118.473C764.742 119.84 764.514 120.979 764.059 121.891C763.668 122.802 763.473 123.714 763.473 124.625C763.473 126.383 763.798 128.141 764.449 129.898C764.905 131.331 765.198 132.763 765.328 134.195C765.523 135.628 766.077 136.539 766.988 136.93C767.9 137.32 769.104 137.516 770.602 137.516ZM771.676 159.488C765.491 159.488 759.664 157.6 754.195 153.824C752.242 152.522 749.638 148.714 746.383 142.398C744.82 139.273 743.746 135.986 743.16 132.535C742.965 131.103 742.672 129.703 742.281 128.336C741.5 125.016 741.109 121.793 741.109 118.668C741.109 117.04 741.272 115.51 741.598 114.078C741.402 112.516 741.305 110.986 741.305 109.488C741.305 105.191 741.891 101.057 743.062 97.0859C748.857 77.6849 755.172 63.3294 762.008 54.0195C762.919 52.6523 763.701 51.2526 764.352 49.8203C765.589 47.151 767.314 44.8398 769.527 42.8867C771.676 37.7435 775.126 33.8372 779.879 31.168C781.116 30.2565 782.027 29.1497 782.613 27.8477C783.72 25.7643 785.478 24.3971 787.887 23.7461C789.84 23.2253 791.142 22.4766 791.793 21.5C792.444 20.5234 793.453 19.9375 794.82 19.7422C799.833 18.4401 804.293 17.7891 808.199 17.7891C814.579 17.7891 820.927 20.1979 827.242 25.0156C829.065 26.513 830.465 28.3359 831.441 30.4844C834.176 35.4974 836.031 40.4453 837.008 45.3281C836.617 46.1745 836.422 47.0534 836.422 47.9648C836.422 49.1367 836.585 50.3086 836.91 51.4805C837.236 52.6523 837.398 53.9544 837.398 55.3867C837.398 56.819 837.431 58.056 837.496 59.0977C837.561 60.0742 837.594 61.0508 837.594 62.0273C837.594 63.2643 837.464 64.5339 837.203 65.8359C836.292 70.5234 835.836 75.4388 835.836 80.582C835.836 81.5586 835.803 82.1445 835.738 82.3398C834.501 85.3997 833.622 88.5573 833.102 91.8125C832.385 95.9792 831.799 98.3229 831.344 98.8438C830.888 99.2995 830.66 99.7552 830.66 100.211C830.595 103.01 829.977 105.582 828.805 107.926C827.698 110.204 826.396 112.385 824.898 114.469C824.117 115.641 823.303 116.943 822.457 118.375C821.676 119.742 820.797 121.174 819.82 122.672C818.909 124.104 818.03 125.569 817.184 127.066C814.97 130.908 812.268 134.326 809.078 137.32C807.971 138.427 806.995 139.664 806.148 141.031C805.302 142.333 804.228 143.57 802.926 144.742C798.043 148.844 792.997 152.327 787.789 155.191C782.581 158.056 777.21 159.488 771.676 159.488ZM749.703 112.516C750.68 111.344 751.493 109.879 752.145 108.121C752.796 106.298 753.512 103.792 754.293 100.602C755.725 94.6771 759.143 83.707 764.547 67.6914C760.25 78.1081 757.06 86.1484 754.977 91.8125C752.958 97.4766 751.591 101.773 750.875 104.703C750.224 107.633 749.833 110.237 749.703 112.516ZM909.559 159.391C908.973 159.391 908.419 159.228 907.898 158.902C907.117 158.642 906.206 158.512 905.164 158.512C904.188 158.512 903.439 158.447 902.918 158.316C902.462 158.186 902.039 157.861 901.648 157.34L899.793 154.996C898.947 154.02 898.198 153.01 897.547 151.969C896.896 150.862 896.57 149.625 896.57 148.258L896.668 146.793C896.668 146.598 896.635 146.402 896.57 146.207C896.505 146.012 896.44 145.784 896.375 145.523C895.138 145.523 893.999 145.816 892.957 146.402L887.977 149.527C886.089 150.634 884.298 151.839 882.605 153.141C879.871 155.289 876.941 156.721 873.816 157.438C870.757 158.154 867.632 158.512 864.441 158.512L860.34 158.414C857.801 158.089 855.652 156.982 853.895 155.094L852.332 153.434C851.16 152.132 849.923 150.96 848.621 149.918C846.408 148.16 844.878 146.142 844.031 143.863C843.12 141.52 842.599 139.046 842.469 136.441C842.339 134.488 842.273 132.568 842.273 130.68C842.273 124.885 842.892 117.887 844.129 109.684C845.04 104.605 846.668 98.8438 849.012 92.3984C851.811 84 854.611 77.6523 857.41 73.3555C858.322 71.8581 859.168 70.3281 859.949 68.7656C862.618 63.362 865.678 58.1862 869.129 53.2383C871.863 49.6576 874.435 46.0117 876.844 42.3008C878.211 40.2174 879.936 38.4922 882.02 37.125C884.559 35.3672 886.967 33.4792 889.246 31.4609C898.621 23.2578 909.428 19.1562 921.668 19.1562C925.965 19.1562 929.611 20.5885 932.605 23.4531C933.387 24.2995 934.201 25.1133 935.047 25.8945C936.479 27.2617 937.846 28.694 939.148 30.1914L939.246 30.3867C940.809 31.9492 941.59 33.4792 941.59 34.9766C941.59 35.7578 941.362 36.5716 940.906 37.418C940.711 37.8086 940.613 38.4596 940.613 39.3711L940.711 41.0312C940.711 43.7656 940.027 46.1745 938.66 48.2578C937.293 50.276 935.73 52.1966 933.973 54.0195C933.257 54.8659 932.573 55.6797 931.922 56.4609C931.271 57.2422 930.294 57.7956 928.992 58.1211C925.867 58.5117 923.556 60.0417 922.059 62.7109C921.733 63.2318 921.245 63.6875 920.594 64.0781C919.878 64.7292 919.096 65.0547 918.25 65.0547C916.948 65.0547 915.451 63.4596 913.758 60.2695C913.562 59.944 913.465 59.5859 913.465 59.1953C913.465 58.6094 913.693 58.1536 914.148 57.8281C914.995 57.4375 915.516 56.9492 915.711 56.3633C915.971 55.7122 916.134 55.0286 916.199 54.3125C916.329 53.2057 916.883 51.1549 917.859 48.1602C918.836 45.1654 919.357 43.4401 919.422 42.9844C919.422 42.3333 919.194 41.8125 918.738 41.4219C918.283 40.9661 917.794 40.7383 917.273 40.7383C916.883 40.7383 916.525 40.8359 916.199 41.0312C914.702 41.7474 911.772 43.7331 907.41 46.9883C904.676 49.0065 902.234 51.3503 900.086 54.0195L897.742 56.9492C896.115 58.8372 894.65 60.888 893.348 63.1016C892.501 64.599 890.971 66.7799 888.758 69.6445C883.159 76.5456 878.634 84.1953 875.184 92.5938L873.035 98.0625C869.585 106.005 867.339 114.143 866.297 122.477C866.167 123.779 865.939 125.081 865.613 126.383C865.092 128.336 864.832 130.289 864.832 132.242L864.93 133.707C865.125 136.637 866.427 138.102 868.836 138.102C869.487 138.102 870.268 138.004 871.18 137.809C874.305 137.092 877.169 135.855 879.773 134.098C884.786 130.712 891.264 124.853 899.207 116.52L904.285 111.344C904.546 111.083 904.676 110.888 904.676 110.758C904.936 110.237 905.066 109.781 905.066 109.391L904.969 109C904.708 108.609 904.22 108.414 903.504 108.414C902.918 108.414 902.039 108.805 900.867 109.586C899.37 110.302 897.84 110.66 896.277 110.66H893.738C893.152 110.66 892.566 110.53 891.98 110.27C891.46 110.009 891.134 109.618 891.004 109.098C890.483 107.47 889.669 106.103 888.562 104.996C887.846 104.215 887.228 103.368 886.707 102.457C885.145 99.7878 884.233 97.2161 883.973 94.7422C883.973 93.1146 884.786 91.9753 886.414 91.3242C886.674 91.2591 886.902 91.1615 887.098 91.0312C888.335 90.4453 889.604 90.0547 890.906 89.8594C898.133 88.9479 905.327 87.5807 912.488 85.7578C913.139 85.6276 913.79 85.5625 914.441 85.5625L916.492 85.4648H918.055C919.747 85.4648 921.408 85.1719 923.035 84.5859C924.272 84.1302 925.542 83.9023 926.844 83.9023L930.359 84.0977C931.857 84.2279 933.159 84.7812 934.266 85.7578C935.372 86.6693 936.089 87.9062 936.414 89.4688C936.935 93.0495 938.79 95.556 941.98 96.9883C942.632 97.3138 943.022 97.737 943.152 98.2578C943.283 98.7786 943.348 99.2995 943.348 99.8203C943.217 102.229 942.273 104.182 940.516 105.68C937.456 108.219 935.047 111.246 933.289 114.762L932.215 116.715C929.35 121.728 926.909 126.936 924.891 132.34L922.449 138.102C920.301 142.529 918.738 147.151 917.762 151.969C917.371 153.857 916.492 155.354 915.125 156.461C913.758 157.568 912.228 158.479 910.535 159.195C910.21 159.326 909.884 159.391 909.559 159.391ZM907.215 41.7148L908.094 41.6172C909.135 41.4219 911.382 40.1849 914.832 37.9062L918.055 35.9531L915.711 35.5625C914.669 35.3672 913.725 35.2695 912.879 35.2695C912.033 35.2695 911.186 35.4648 910.34 35.8555C908.257 36.8971 906.922 37.9062 906.336 38.8828C905.88 39.599 905.652 40.1523 905.652 40.543C905.652 40.7383 905.652 40.8685 905.652 40.9336L905.75 41.0312C906.076 41.487 906.564 41.7148 907.215 41.7148ZM845.984 118.961C846.961 117.854 847.742 116.454 848.328 114.762C848.914 113.004 849.63 110.562 850.477 107.438C851.779 101.708 855.034 91.1615 860.242 75.7969C856.141 85.7578 853.081 93.4727 851.062 98.9414C849.109 104.41 847.807 108.577 847.156 111.441C846.505 114.241 846.115 116.747 845.984 118.961ZM912.488 151.871C913.53 150.829 914.441 149.495 915.223 147.867C916.004 146.174 916.915 143.798 917.957 140.738C919.78 135.139 923.947 124.918 930.457 110.074C925.444 119.645 921.701 127.066 919.227 132.34C916.818 137.613 915.158 141.65 914.246 144.449C913.4 147.249 912.814 149.723 912.488 151.871ZM956.23 159.195C955.059 159.195 953.854 159 952.617 158.609C951.836 158.414 951.25 157.763 950.859 156.656C950.404 155.549 949.753 154.898 948.906 154.703L949.102 154.605C948.581 153.434 947.93 152.294 947.148 151.188C946.823 150.862 946.432 150.667 945.977 150.602C945.586 150.602 945.13 150.732 944.609 150.992C944.089 151.253 943.633 151.383 943.242 151.383C942.656 151.383 942.363 150.895 942.363 149.918L942.461 148.844C942.461 148.323 942.363 147.867 942.168 147.477C941.908 147.021 941.615 146.565 941.289 146.109C940.964 145.654 940.703 145.1 940.508 144.449L940.41 143.277C940.41 142.952 940.475 142.626 940.605 142.301C941.712 140.478 942.591 138.557 943.242 136.539C944.023 134 945.195 131.624 946.758 129.41C949.362 126.025 950.957 122.118 951.543 117.691C951.999 114.566 953.171 111.767 955.059 109.293C958.77 104.54 960.788 99.1042 961.113 92.9844C961.113 90.3151 961.797 86.832 963.164 82.5352C973.776 48.9414 979.701 30.9076 980.938 28.4336C981.523 27.1966 982.012 25.9922 982.402 24.8203C982.793 23.5833 983.444 22.5417 984.355 21.6953C986.439 19.8073 988.066 18.8633 989.238 18.8633C989.824 18.8633 990.28 19.0586 990.605 19.4492C991.647 20.6211 992.917 21.4674 994.414 21.9883C995.326 22.3789 996.172 22.8346 996.953 23.3555C997.734 23.8763 998.32 24.6576 998.711 25.6992C999.102 26.3503 999.655 26.9688 1000.37 27.5547L1001.25 28.2383C1002.75 29.8008 1003.82 31.0052 1004.47 31.8516C1005.19 32.6979 1005.55 33.6419 1005.55 34.6836C1005.55 36.0508 1005.09 38.0039 1004.18 40.543C1000.01 53.8893 995.423 67.1055 990.41 80.1914C988.848 84.4232 987.448 88.7201 986.211 93.082C984.453 99.2669 979.961 112.223 972.734 131.949C972.409 132.861 972.148 133.74 971.953 134.586L971.66 135.27C970.033 141.845 967.461 147.737 963.945 152.945C963.294 153.792 962.871 154.801 962.676 155.973C962.611 156.624 962.448 157.21 962.188 157.73C961.992 158.186 961.569 158.479 960.918 158.609C959.355 159 957.793 159.195 956.23 159.195ZM956.719 112.613C957.826 111.572 958.77 110.172 959.551 108.414C960.332 106.591 961.276 104.052 962.383 100.797C964.206 94.8073 968.503 83.8698 975.273 67.9844C970.065 78.2708 966.191 86.2461 963.652 91.9102C961.178 97.5091 959.486 101.806 958.574 104.801C957.663 107.73 957.044 110.335 956.719 112.613ZM1072.34 160.172C1072.01 160.172 1071.85 160.074 1071.85 159.879C1071.07 156.363 1070.15 154.605 1069.11 154.605C1068.33 154.605 1067.32 155.745 1066.09 158.023C1065.83 158.479 1065.5 158.707 1065.11 158.707C1064.59 158.707 1064.07 158.447 1063.55 157.926C1063.03 157.405 1062.64 156.819 1062.38 156.168C1061.33 152.978 1059.93 149.951 1058.18 147.086C1057.52 145.849 1057.2 144.579 1057.2 143.277V126.871C1057.2 125.569 1057.04 124.658 1056.71 124.137C1056.45 123.616 1055.83 123.355 1054.86 123.355L1052.12 123.648C1048.02 123.909 1044.05 124.527 1040.21 125.504C1036.37 126.48 1032.46 127.132 1028.49 127.457C1026.34 127.587 1024.65 128.922 1023.41 131.461C1017.88 142.529 1014 150.146 1011.79 154.312C1009.77 157.958 1007.07 159.781 1003.68 159.781C1001.93 159.781 1000.04 159.293 998.02 158.316C997.238 157.926 996.587 157.503 996.066 157.047C995.546 156.526 995.188 155.81 994.992 154.898C994.797 153.987 994.406 153.173 993.82 152.457C992.844 151.35 992.355 150.309 992.355 149.332C992.355 147.965 993.072 146.695 994.504 145.523C997.043 142.854 998.378 139.827 998.508 136.441C998.898 132.991 999.908 129.898 1001.54 127.164C1002.12 125.927 1002.41 124.592 1002.41 123.16C1002.41 122.118 1002.35 121.077 1002.22 120.035C1002.02 118.928 1001.93 117.757 1001.93 116.52V116.129C1001.93 114.501 1002.8 113.134 1004.56 112.027C1006.32 110.921 1008.08 110.042 1009.84 109.391L1010.62 109C1014.39 107.307 1016.51 104.475 1016.96 100.504C1017.1 99.4622 1017.29 98.5833 1017.55 97.8672C1017.81 97.0859 1017.94 96.4023 1017.94 95.8164V95.4258C1018.59 94.9049 1019.11 94.3841 1019.5 93.8633C1019.96 93.3424 1020.19 92.6263 1020.19 91.7148L1019.99 90.0547C1019.99 88.8177 1020.64 87.9062 1021.95 87.3203C1023.25 86.7344 1026.01 86.4414 1030.25 86.4414C1030.51 86.4414 1030.77 86.2786 1031.03 85.9531C1031.29 85.5625 1031.42 85.1719 1031.42 84.7812L1031.22 84.1953C1028.23 82.6328 1026.73 81.1029 1026.73 79.6055C1026.73 78.4987 1027.19 77.3919 1028.1 76.2852C1030.38 72.2487 1032.56 68.1797 1034.64 64.0781C1041.54 50.6667 1048.44 39.2409 1055.34 29.8008L1056.71 28.043C1059.12 24.3971 1062.18 21.2396 1065.89 18.5703C1067.45 17.4635 1069.02 16.9102 1070.58 16.9102C1071.49 16.9102 1072.69 17.3333 1074.19 18.1797C1075.75 18.9609 1077.09 19.3516 1078.2 19.3516L1079.37 19.2539C1079.56 19.2539 1079.86 19.3516 1080.25 19.5469C1080.7 19.7422 1082.65 21.6302 1086.11 25.2109C1086.95 26.0573 1087.77 26.9362 1088.55 27.8477C1089.39 28.694 1089.82 29.7031 1089.82 30.875V41.1289C1089.82 44.1888 1089.39 46.5977 1088.55 48.3555L1088.64 50.1133C1088.64 52.5221 1088.32 54.931 1087.67 57.3398C1087.28 59.4883 1086.98 61.6042 1086.79 63.6875C1086.66 69.0911 1085.36 74.4297 1082.88 79.7031C1082.88 80.1589 1082.82 80.5495 1082.69 80.875C1082.62 81.1354 1082.59 81.4609 1082.59 81.8516C1083.18 84.3255 1083.47 86.832 1083.47 89.3711C1083.47 91.5195 1083.37 93.6354 1083.18 95.7188C1082.98 97.8021 1082.85 99.7878 1082.79 101.676C1082.72 107.861 1081.87 113.915 1080.25 119.84C1079.99 120.751 1079.86 121.63 1079.86 122.477C1079.92 123.388 1079.99 127.229 1080.05 134C1080.05 137.581 1080.18 141.552 1080.44 145.914C1080.44 149.755 1079.5 153.531 1077.61 157.242C1077.22 157.958 1076.83 158.316 1076.44 158.316L1076.05 158.219C1075.33 157.828 1074.78 157.633 1074.39 157.633C1073.54 157.633 1073.02 158.349 1072.82 159.781C1072.82 160.042 1072.66 160.172 1072.34 160.172ZM1045.48 101.871C1046.33 101.871 1047.82 101.643 1049.97 101.188C1052.19 100.536 1054.43 100.211 1056.71 100.211C1057.23 100.211 1057.65 100.048 1057.98 99.7227C1058.31 99.332 1058.47 98.9089 1058.47 98.4531C1058.6 96.3698 1058.89 94.2865 1059.35 92.2031C1060 89.9245 1060.32 87.6133 1060.32 85.2695L1060.13 81.5586C1060.13 80.7122 1060.26 79.8984 1060.52 79.1172C1061.3 76.5781 1061.69 73.9089 1061.69 71.1094V70.3281C1061.69 69.5469 1061.72 68.5378 1061.79 67.3008C1061.92 65.9987 1062.21 64.1432 1062.67 61.7344C1063.19 59.2604 1063.97 55.9401 1065.01 51.7734V50.2109C1061.43 57.8932 1058.83 63.3294 1057.2 66.5195C1054.92 70.9466 1050.01 80.8424 1042.45 96.207L1041.96 97.0859C1041.38 98.0625 1040.96 99.1367 1040.7 100.309C1040.7 100.699 1040.83 101.025 1041.09 101.285C1041.61 101.676 1043.07 101.871 1045.48 101.871ZM1042.75 79.5078C1043.79 78.7266 1044.7 77.7174 1045.48 76.4805C1046.52 74.918 1047.79 72.5742 1049.29 69.4492C1051.7 64.1758 1057.17 54.2799 1065.7 39.7617L1058.86 49.8203C1051.31 61.1484 1046.59 69.1562 1044.7 73.8438C1044.05 75.4714 1043.4 77.3594 1042.75 79.5078ZM1028.2 118.18L1029.66 118.082C1031.09 117.887 1033.11 117.464 1035.71 116.812C1040.21 115.445 1049.48 113.525 1063.55 111.051L1053.59 112.223C1042.32 113.525 1034.74 114.859 1030.83 116.227C1029.46 116.682 1027.93 117.268 1026.24 117.984L1028.2 118.18Z" fill="url(#paint0_linear_381_10)" fill-opacity="0.72"/>
</g>
<defs>
<filter id="filter0_f_381_10" x="0.945312" y="0.910156" width="1104.87" height="176.043" filterUnits="userSpaceOnUse" color-interpolation-filters="sRGB">
<feFlood flood-opacity="0" result="BackgroundImageFix"/>
<feBlend mode="normal" in="SourceGraphic" in2="BackgroundImageFix" result="shape"/>
<feGaussianBlur stdDeviation="8" result="effect1_foregroundBlur_381_10"/>
</filter>
<linearGradient id="paint0_linear_381_10" x1="563.371" y1="-578.364" x2="563.371" y2="287.273" gradientUnits="userSpaceOnUse">
<stop stop-color="white"/>
<stop offset="0.896326" stop-color="#999999" stop-opacity="0"/>
</linearGradient>
</defs>
</svg>
