<svg width="40" height="40" viewBox="0 0 40 40" fill="none" xmlns="http://www.w3.org/2000/svg">
<circle cx="20" cy="20" r="20" fill="url(#paint0_linear_743_311)"/>
<path d="M17.0586 14.8733C17.0433 14.4463 17.3772 14.1126 17.8042 14.1277L24.7643 14.3766C25.1914 14.3919 25.5499 14.7504 25.5652 15.1775L25.8141 22.1376C25.8291 22.5645 25.4955 22.8984 25.0685 22.8832C24.6415 22.8679 24.283 22.5092 24.2676 22.0823L24.0855 16.989L15.6648 25.4097C15.3736 25.7009 14.8839 25.6834 14.5711 25.3706C14.2583 25.0578 14.2408 24.5682 14.532 24.277L22.9527 15.8563L17.8595 15.6742C17.4325 15.6587 17.0739 15.3003 17.0586 14.8733Z" fill="white"/>
<defs>
<linearGradient id="paint0_linear_743_311" x1="20" y1="0" x2="20" y2="40" gradientUnits="userSpaceOnUse">
<stop stop-color="#9627F0"/>
<stop offset="0.461538" stop-color="#8902FF"/>
<stop offset="0.711538" stop-color="#9616FF"/>
<stop offset="1" stop-color="#59059D"/>
</linearGradient>
</defs>
</svg>
