<svg width="150" height="55" viewBox="0 0 150 55" fill="none" xmlns="http://www.w3.org/2000/svg">
<path d="M41.3947 37.1015L46.4109 51.9875C46.7752 53.0684 48.2888 53.1514 48.7715 52.1167L51.5395 46.1843C51.6688 45.9071 51.8956 45.686 52.1776 45.562L58.4279 42.8142C59.4915 42.3467 59.4135 40.8283 58.3072 40.4699L42.9966 35.5086C42.0038 35.1869 41.0644 36.1212 41.3947 37.1015Z" fill="#262626" stroke="url(#paint0_linear_412_121)"/>
<path d="M57.1326 32.597V9.72561C57.1326 6.25277 54.2865 3.4375 50.7757 3.4375H11.3626C7.85174 3.4375 5.00563 6.25279 5.00563 9.72561V41.9554C5.00563 45.4282 7.85174 48.2436 11.3626 48.2436H37.0008" stroke="url(#paint1_linear_412_121)" stroke-width="2"/>
<path d="M7.16255 11.6163H54.9756" stroke="url(#paint2_linear_412_121)" stroke-width="2" stroke-linecap="round"/>
<path d="M11.3344 8.17777C11.3344 7.53663 10.802 7.01689 10.1451 7.01689C9.4883 7.01689 8.95584 7.53663 8.95584 8.17777C8.95584 8.81891 9.4883 9.33865 10.1451 9.33865C10.802 9.33865 11.3344 8.81891 11.3344 8.17777Z" fill="#5F04A8"/>
<path d="M16.0916 8.17777C16.0916 7.53663 15.5591 7.01689 14.9023 7.01689C14.2455 7.01689 13.713 7.53663 13.713 8.17777C13.713 8.81891 14.2455 9.33865 14.9023 9.33865C15.5591 9.33865 16.0916 8.81891 16.0916 8.17777Z" fill="#5F04A8"/>
<path d="M20.8487 8.17777C20.8487 7.53663 20.3163 7.01689 19.6594 7.01689C19.0026 7.01689 18.4702 7.53663 18.4702 8.17777C18.4702 8.81891 19.0026 9.33865 19.6594 9.33865C20.3163 9.33865 20.8487 8.81891 20.8487 8.17777Z" fill="#5F04A8"/>
<path d="M67.8526 20.0905L67.6837 20.08C67.5148 20.08 67.4022 20.0346 67.3458 19.9438C67.2262 19.7761 67.0854 19.6713 66.9236 19.6294C66.7617 19.5805 66.5892 19.5525 66.4062 19.5455L66.3535 19.5351C66.1423 19.5281 66.0332 19.4338 66.0262 19.2521V19.2311C66.0262 19.0006 65.9276 18.8329 65.7306 18.7281C65.632 18.6722 65.5828 18.6023 65.5828 18.5185C65.5828 18.4696 65.5968 18.4172 65.625 18.3613C65.8361 17.8862 65.9875 17.3901 66.079 16.8731C66.1423 16.5796 66.2162 16.2932 66.3007 16.0137C66.3922 15.6784 66.5013 15.343 66.6279 15.0076C66.7828 14.6164 66.9236 14.2216 67.0502 13.8234C67.1558 13.481 67.2649 13.1456 67.3775 12.8173C67.4972 12.4609 67.6098 12.1011 67.7154 11.7378C67.8984 11.1509 68.1377 10.5151 68.4333 9.83041C68.5459 9.55094 68.6444 9.27147 68.7289 8.99199C68.8133 8.70554 68.8556 8.41209 68.8556 8.11166L68.845 7.92302C68.845 7.80424 68.7781 7.7204 68.6444 7.67149C68.4051 7.59464 68.2855 7.47586 68.2855 7.31517C68.2855 7.28023 68.2925 7.2418 68.3066 7.19988C68.3347 7.12303 68.3488 7.04967 68.3488 6.9798C68.3488 6.85404 68.296 6.73876 68.1904 6.63395C68.1553 6.58505 68.1377 6.53963 68.1377 6.49771C68.1377 6.40688 68.1869 6.33352 68.2855 6.27763C68.6374 6.01912 69.0386 5.83047 69.489 5.7117C70.3125 5.49511 71.1465 5.35887 71.9911 5.30297C72.153 5.29598 72.3114 5.26804 72.4662 5.21913C72.6281 5.16324 72.7935 5.13529 72.9624 5.13529L73.2369 5.15625C73.4762 5.15625 73.712 5.12481 73.9442 5.06193C74.3525 4.99905 74.7642 4.96761 75.1795 4.96761C75.3625 4.96761 75.5384 4.9711 75.7073 4.97809C75.8763 4.97809 76.0276 5.01302 76.1613 5.08289C76.3021 5.14577 76.4358 5.22262 76.5625 5.31345H76.573C76.6575 5.37633 76.7244 5.46716 76.7736 5.58594C76.8229 5.69772 76.8475 5.80951 76.8475 5.9213C76.8475 6.06104 76.8053 6.16933 76.7208 6.24619C76.4815 6.42784 76.3584 6.6619 76.3513 6.94836C76.3373 7.05316 76.3161 7.14399 76.288 7.22084C76.2528 7.22084 76.2141 7.21036 76.1719 7.1894C76.1367 7.16844 76.098 7.15796 76.0557 7.15796C76.0276 7.15796 76.0029 7.16495 75.9818 7.17892C75.9607 7.1929 75.9396 7.20687 75.9185 7.22084C75.9044 7.23482 75.8903 7.25578 75.8763 7.28373C75.8763 7.31866 75.8833 7.34311 75.8974 7.35709C75.9114 7.36407 76.0417 7.37455 76.288 7.38853L76.2986 7.40949C76.1859 7.47936 76.0557 7.52128 75.9079 7.53525C75.7672 7.54224 75.6334 7.57717 75.5067 7.64005C75.4575 7.668 75.4047 7.68197 75.3484 7.68197C75.2358 7.68197 75.1337 7.64005 75.0422 7.55621C74.9015 7.43045 74.7466 7.36757 74.5777 7.36757C74.4792 7.36757 74.2363 7.41997 73.8492 7.52477C73.3917 7.66451 72.9272 7.76581 72.4556 7.82869C72.2656 7.84966 72.1108 7.9824 71.9911 8.22694C71.8222 8.5134 71.6744 8.80684 71.5477 9.10728C71.4703 9.30291 71.3893 9.49504 71.3049 9.68369C71.1008 10.0889 70.9495 10.5151 70.8509 10.9623V11.0252C70.8509 11.13 70.9072 11.1893 71.0198 11.2033L71.1993 11.2138L71.3154 11.2033C71.5477 11.1265 71.787 11.088 72.0333 11.088H72.2445C72.4486 11.088 72.6457 11.0706 72.8357 11.0356C72.885 11.0217 72.9343 11.0147 72.9835 11.0147C73.2439 11.0147 73.3988 11.1824 73.448 11.5177C73.4551 11.6225 73.4727 11.7238 73.5008 11.8216C73.529 11.9125 73.5888 11.9963 73.6803 12.0732C73.814 12.1989 73.8809 12.3352 73.8809 12.4819C73.8809 12.6705 73.7718 12.8382 73.5536 12.9849C73.0469 13.2574 72.5155 13.4391 71.9594 13.5299C71.7976 13.5579 71.5336 13.6138 71.1676 13.6976C70.8861 13.7605 70.6011 13.8199 70.3125 13.8758C69.8972 13.9317 69.6192 14.1517 69.4785 14.536C69.4151 14.7177 69.3447 14.8923 69.2673 15.06C69.1406 15.3325 69.0421 15.619 68.9717 15.9194C68.9154 16.1779 68.7887 16.5587 68.5916 17.0617V17.1037C68.5916 17.1805 68.6409 17.2294 68.7394 17.2504L68.8872 17.2609C69.0632 17.2189 69.2391 17.191 69.4151 17.177C69.5981 17.163 69.767 17.1386 69.9219 17.1037C70.1049 17.0547 70.2914 17.0233 70.4814 17.0093C70.7207 17.0023 70.953 16.9569 71.1782 16.8731C71.2627 16.8451 71.3506 16.8312 71.4421 16.8312H71.8855C72.0967 16.8312 72.3043 16.7962 72.5084 16.7264C72.5929 16.7054 72.6844 16.6949 72.7829 16.6949H73.068C73.2158 16.7159 73.2897 16.7927 73.2897 16.9255C73.2897 17.0792 73.2862 17.2015 73.2791 17.2923L73.2686 17.4181H73.2897V17.5857L73.2686 17.5753C73.339 17.6451 73.3741 17.715 73.3741 17.7849C73.3741 17.8827 73.3425 17.9735 73.2791 18.0574C73.2791 18.0713 73.2756 18.0818 73.2686 18.0888C73.2404 18.1447 73.2263 18.1901 73.2263 18.225C73.2263 18.3159 73.2932 18.3683 73.4269 18.3822C73.5255 18.3962 73.5747 18.4416 73.5747 18.5185L73.5642 18.5709C73.5642 18.6268 73.5255 18.6757 73.448 18.7176C73.075 18.8643 72.7161 19.0355 72.3712 19.2311C72.153 19.3289 71.9102 19.3918 71.6427 19.4198L71.3471 19.4722C70.5659 19.6468 69.848 19.7831 69.1934 19.8809C69.0245 19.9019 68.8556 19.9333 68.6866 19.9752C68.4122 20.0521 68.1341 20.0905 67.8526 20.0905ZM73.1841 13.5509L73.1313 13.5299L73.1841 13.4985V13.5509ZM66.8708 14.8714C66.9834 14.7666 67.0784 14.6268 67.1558 14.4522C67.2332 14.2775 67.3283 14.0295 67.4409 13.7081C67.6239 13.1142 68.0532 12.0312 68.7289 10.4592C68.208 11.4723 67.8209 12.2583 67.5676 12.8173C67.3142 13.3762 67.1417 13.8024 67.0502 14.0958C66.9658 14.3893 66.906 14.6478 66.8708 14.8714ZM71.9067 7.54573L72.065 7.53525C72.2199 7.51429 72.4345 7.46888 72.709 7.39901C73.1806 7.25927 74.166 7.06015 75.6651 6.80164L74.6094 6.91692C73.4129 7.05665 72.607 7.19639 72.1917 7.33613C72.0439 7.38503 71.882 7.44791 71.7061 7.52477L71.9067 7.54573ZM69.8691 13.4461L70.0274 13.4356C70.1752 13.4146 70.3864 13.3692 70.6609 13.2993C71.1395 13.1596 72.1248 12.9605 73.617 12.702L72.5612 12.8277C71.3718 12.9605 70.5659 13.0967 70.1436 13.2365C70.0028 13.2854 69.8444 13.3483 69.6685 13.4251L69.8691 13.4461ZM69.1723 19.5246L69.3306 19.5141C69.4855 19.4931 69.7002 19.4477 69.9747 19.3779C70.4462 19.2381 71.4316 19.039 72.9307 18.7805L71.875 18.8958C70.6785 19.0355 69.8726 19.1752 69.4573 19.315C69.3095 19.3639 69.1477 19.4268 68.9717 19.5036L69.1723 19.5246Z" fill="white"/>
<path d="M77.481 20.2058H77.0376C76.742 20.2058 76.4534 20.1848 76.1719 20.1429C75.9466 20.094 75.7425 20.0032 75.5595 19.8704C75.3484 19.7167 75.2182 19.4722 75.1689 19.1368C75.1689 19.0669 75.1196 19.0145 75.0211 18.9796C74.9155 18.9377 74.8627 18.8818 74.8627 18.8119C74.8698 18.7281 74.8909 18.6512 74.9261 18.5814C74.9542 18.5045 74.9718 18.4311 74.9789 18.3613C74.9789 18.3333 74.9718 18.2984 74.9578 18.2565C74.9437 18.2146 74.9226 18.1866 74.8944 18.1726C74.8311 18.1377 74.7853 18.0923 74.7572 18.0364C74.722 17.9805 74.6938 17.9176 74.6727 17.8477C74.6446 17.7709 74.5988 17.694 74.5355 17.6172C74.4721 17.5403 74.4404 17.4565 74.4404 17.3657C74.4404 17.2818 74.4686 17.191 74.5249 17.0932C74.5882 16.9465 74.6586 16.8731 74.7361 16.8731C74.7853 16.8731 74.8557 16.908 74.9472 16.9779C75.0317 17.0478 75.1267 17.0827 75.2323 17.0827L75.3484 17.0617C75.4962 17.0198 75.644 16.9989 75.7918 16.9989C76.2282 16.9989 76.6223 17.1561 76.9742 17.4705C77.1431 17.6242 77.3226 17.701 77.5127 17.701C77.6323 17.701 77.7625 17.6766 77.9033 17.6277C78.4382 17.439 78.9274 17.1805 79.3708 16.8521C79.5326 16.7334 79.6699 16.5936 79.7825 16.4329C80.064 16.1325 80.2048 15.8635 80.2048 15.626C80.2048 15.3674 80.0183 15.0984 79.6453 14.819L78.3573 13.75C78.308 13.7081 78.2658 13.6627 78.2306 13.6138C78.1954 13.5579 78.1637 13.5159 78.1355 13.488C78.1144 13.46 78.0933 13.4356 78.0722 13.4146C77.9948 13.3098 77.9244 13.2504 77.8611 13.2365C77.5443 13.1526 77.2804 12.9954 77.0692 12.7649C76.9496 12.6461 76.8194 12.5378 76.6786 12.44C76.5238 12.3561 76.4464 12.2478 76.4464 12.1151V11.9474C76.4464 11.6959 76.4147 11.4479 76.3513 11.2033C76.288 10.9588 76.2563 10.7038 76.2563 10.4383C76.2704 9.99111 76.3654 9.5719 76.5414 9.18064C76.7596 8.65663 77.0728 8.20249 77.481 7.81821L77.8611 7.46189C78.1355 7.1894 78.4241 6.93089 78.7268 6.68635C79.4658 6.12741 80.2857 5.73615 81.1866 5.51257C81.5245 5.42873 81.8658 5.34838 82.2107 5.27153L82.6752 5.16673L82.992 5.13529C83.1468 5.13529 83.3404 5.19468 83.5726 5.31345L83.6571 5.34489C83.8682 5.44271 84.0723 5.56148 84.2694 5.70122C84.3961 5.78506 84.5193 5.86191 84.6389 5.93178C84.7586 5.99466 84.8184 6.06802 84.8184 6.15187C84.8184 6.1868 84.8043 6.23221 84.7762 6.28811C84.7551 6.33702 84.7445 6.38592 84.7445 6.43483C84.7445 6.52566 84.7832 6.61299 84.8606 6.69684C84.9732 6.86452 85.0296 7.04967 85.0296 7.25228C85.0296 7.39202 85.0084 7.53525 84.9662 7.68197C84.9029 7.94048 84.8078 8.18851 84.6812 8.42607L84.5756 8.66711C84.3855 9.12125 84.1533 9.55443 83.8788 9.96665C83.8295 10.0435 83.7943 10.1308 83.7732 10.2287C83.6888 10.585 83.4846 10.8435 83.1609 11.0042C83.1116 11.0252 83.0659 11.0601 83.0236 11.109L82.992 11.1404C82.8019 11.364 82.6506 11.4758 82.538 11.4758C82.4747 11.4758 82.4113 11.4409 82.348 11.371C82.2846 11.3011 82.2107 11.1998 82.1263 11.0671C81.9996 10.8854 81.9221 10.6793 81.894 10.4487C81.8729 10.302 81.8342 10.1553 81.7779 10.0086L81.7673 9.96665C81.7673 9.90377 81.7884 9.83041 81.8306 9.74657L82.0207 9.29592C82.1122 9.08632 82.1966 8.87671 82.2741 8.66711C82.3374 8.5134 82.3867 8.34921 82.4219 8.17454C82.4219 8.13262 82.4078 8.10467 82.3796 8.0907C82.3515 8.06974 82.3198 8.05926 82.2846 8.05926C82.0172 8.12214 81.806 8.18502 81.6512 8.2479C80.5884 8.70903 79.6945 9.39024 78.9696 10.2915C78.8077 10.4872 78.7268 10.6688 78.7268 10.8365C78.7268 11.0112 78.8112 11.1998 78.9801 11.4024L79.0329 11.4758C79.1103 11.5806 79.1948 11.6784 79.2863 11.7692C79.3778 11.8601 79.4904 11.9334 79.6241 11.9893C79.7649 12.0382 79.881 12.1186 79.9725 12.2304L81.4717 13.729C82.07 14.295 82.4254 14.9902 82.538 15.8146C82.545 15.8705 82.5591 15.9299 82.5802 15.9928C82.6084 16.0487 82.6295 16.1045 82.6436 16.1604C82.6788 16.37 82.6964 16.5133 82.6964 16.5901C82.6964 16.7788 82.626 16.9569 82.4852 17.1246C82.2529 17.7045 81.9186 18.1901 81.4823 18.5814C81.0459 18.9726 80.5743 19.322 80.0676 19.6294C79.6382 19.9089 79.2441 20.0486 78.8851 20.0486C78.8007 20.0486 78.7127 20.0381 78.6212 20.0171L78.4839 20.0067C78.3009 20.0067 78.1285 20.0346 77.9666 20.0905C77.8047 20.1464 77.6429 20.1848 77.481 20.2058ZM78.1778 9.02344C78.3326 8.9885 78.491 8.91514 78.6529 8.80335C78.8218 8.69156 79.04 8.52388 79.3074 8.3003C79.7931 7.8811 80.7573 7.16146 82.2002 6.14139C81.1937 6.75622 80.43 7.2418 79.9092 7.59813C79.3884 7.94747 79.0083 8.22694 78.769 8.43655C78.5297 8.64615 78.3326 8.84178 78.1778 9.02344ZM80.3632 18.8224L80.3948 18.8119C80.4652 18.756 80.5391 18.6827 80.6165 18.5918L80.7327 18.4766C80.972 18.3438 81.1515 18.232 81.2711 18.1412C81.3978 18.0504 81.5139 17.9351 81.6195 17.7953C81.7321 17.6556 81.8834 17.439 82.0735 17.1456C81.8482 17.3342 81.6265 17.4809 81.4083 17.5857C81.2254 17.6766 81.074 17.7744 80.9544 17.8792C80.8347 17.977 80.7749 18.1307 80.7749 18.3403L80.6165 18.3613C80.6165 18.4451 80.5814 18.501 80.511 18.529C80.4406 18.5569 80.3632 18.5779 80.2787 18.5918L80.1309 18.6966L80.1626 18.7176C80.2611 18.7875 80.328 18.8224 80.3632 18.8224Z" fill="white"/>
<path d="M84.6917 20.2372C84.6002 20.2372 84.5298 20.1953 84.4806 20.1115C84.4383 20.0206 84.3855 19.9508 84.3222 19.9019C84.2659 19.846 84.192 19.818 84.1005 19.818L83.9949 19.8285C83.9527 19.8285 83.914 19.811 83.8788 19.7761C83.8506 19.7412 83.8295 19.6958 83.8154 19.6399C83.8014 19.577 83.7732 19.5316 83.731 19.5036C83.6888 19.4687 83.636 19.4407 83.5726 19.4198L83.5198 19.3883C83.2946 19.2905 83.182 19.1473 83.182 18.9586C83.182 18.8958 83.1961 18.8259 83.2242 18.749C83.2524 18.6652 83.277 18.5814 83.2981 18.4975C83.4811 17.8617 83.731 17.1491 84.0477 16.3596C84.2659 15.8495 84.4489 15.3255 84.5967 14.7875C84.6671 14.55 84.7621 14.3264 84.8817 14.1168L85.0401 13.8024L85.0929 13.6766C85.1562 13.5858 85.1879 13.4915 85.1879 13.3937C85.2161 12.9675 85.304 12.5518 85.4518 12.1465C85.5293 11.916 85.6489 11.4828 85.8108 10.847L86.0219 10.0295C86.1416 9.4636 86.3492 8.93261 86.6448 8.43655C86.6941 8.35969 86.7187 8.28982 86.7187 8.22694C86.7187 8.08721 86.6061 8.00336 86.3809 7.97542C86.1909 7.96144 86.0642 7.93 86.0008 7.8811C85.9445 7.8252 85.8917 7.70643 85.8425 7.52477C85.8143 7.41298 85.7756 7.2977 85.7263 7.17892C85.6278 6.99028 85.5785 6.80513 85.5785 6.62347C85.5785 6.35099 85.7123 6.14837 85.9797 6.01562C87.1833 5.43572 88.2179 5.13529 89.0836 5.11433L89.5798 5.13529C89.7839 5.13529 89.9845 5.09337 90.1816 5.00953H90.2555C90.8185 5.04446 91.3675 5.1283 91.9024 5.26105C92.4373 5.38681 92.93 5.64183 93.3805 6.0261C93.472 6.10296 93.574 6.16933 93.6866 6.22523C94.2497 6.51169 94.7353 7.00775 95.1436 7.71341C95.2069 7.83219 95.2456 7.94398 95.2597 8.04878C95.2808 8.15358 95.2914 8.27585 95.2914 8.41559C95.2914 8.78588 95.2316 9.14221 95.1119 9.48456C94.9993 9.81993 94.8585 10.1483 94.6896 10.4697C94.5629 10.7142 94.3658 10.9203 94.0984 11.088C93.7676 11.3256 93.5001 11.6295 93.296 11.9998L93.3066 12.0208C93.0954 12.3561 92.8878 12.6181 92.6837 12.8068C92.4866 12.9884 92.1875 13.1841 91.7863 13.3937C91.5892 13.4985 91.4098 13.6207 91.2479 13.7605C90.8467 14.1378 90.3786 14.3858 89.8437 14.5046C89.5411 14.5675 89.249 14.6478 88.9675 14.7456C88.5381 14.9063 88.0982 15.0006 87.6478 15.0286C87.5633 15.0426 87.5035 15.0775 87.4683 15.1334C87.3698 15.315 87.2572 15.4827 87.1305 15.6364C86.9545 15.839 86.8138 16.0731 86.7082 16.3386L86.4654 17.0513C86.2049 17.736 85.9938 18.4346 85.8319 19.1473C85.853 19.1822 85.8636 19.2172 85.8636 19.2521C85.8636 19.3289 85.8319 19.3988 85.7686 19.4617C85.7123 19.5246 85.6771 19.5979 85.663 19.6818C85.6419 19.8984 85.5961 20.0346 85.5257 20.0905C85.4554 20.1394 85.3076 20.1639 85.0823 20.1639C85.0331 20.1709 84.9908 20.1743 84.9556 20.1743C84.9205 20.1813 84.8853 20.1883 84.8501 20.1953C84.8149 20.2093 84.7621 20.2233 84.6917 20.2372ZM88.3446 12.702L88.4607 12.681C88.8408 12.5762 89.1997 12.4225 89.5376 12.2199C89.8754 12.0173 90.2027 11.8007 90.5194 11.5701L90.8256 11.3605C90.9875 11.2697 91.1212 11.1579 91.2268 11.0252C91.5646 10.5361 91.8145 10.1553 91.9763 9.88281C92.1875 9.52648 92.3529 9.1492 92.4725 8.75095L92.4937 8.66711C92.5288 8.54135 92.5535 8.40161 92.5676 8.2479C92.5676 8.08721 92.5218 7.93699 92.4303 7.79725C92.3458 7.65053 92.3036 7.49682 92.3036 7.33613L92.3142 7.19988C92.3142 7.1929 92.3001 7.18591 92.2719 7.17892C92.2508 7.16495 92.2192 7.15098 92.1769 7.137C92.1417 7.12303 92.103 7.11604 92.0608 7.11604C91.9834 7.11604 91.913 7.12652 91.8497 7.14748C91.723 7.1894 91.5963 7.22434 91.4696 7.25228C91.1458 7.28722 90.8537 7.41298 90.5933 7.62957H90.5616C90.3716 7.62957 90.2203 7.68547 90.1077 7.79725C90.0021 7.90206 89.9141 8.03131 89.8437 8.18502L89.6959 8.44703C89.4989 8.7754 89.3299 9.11426 89.1892 9.4636C89.0906 9.7291 88.9816 9.98761 88.8619 10.2391C88.5663 10.847 88.3164 11.5596 88.1123 12.3771L88.1018 12.4714C88.1018 12.6112 88.1827 12.688 88.3446 12.702ZM85.0507 15.0181C85.1633 14.9063 85.2583 14.7596 85.3357 14.5779C85.4202 14.3963 85.5187 14.1413 85.6313 13.8129C85.8214 13.205 86.2648 12.0906 86.9616 10.4697C86.4266 11.5177 86.029 12.3282 85.7686 12.9011C85.5082 13.474 85.3322 13.9142 85.2407 14.2216C85.1492 14.522 85.0859 14.7875 85.0507 15.0181ZM90.2238 7.07412C90.3786 7.07412 90.6567 6.99727 91.0578 6.84356L91.4168 6.70732L91.1845 6.61299C91.0227 6.53614 90.8819 6.49771 90.7622 6.49771C90.4877 6.51169 90.266 6.59553 90.0971 6.74924C90.0267 6.82609 89.9915 6.88897 89.9915 6.93788C89.9986 7.02871 90.076 7.07412 90.2238 7.07412ZM89.432 14.2426C89.5094 14.1867 89.5904 14.1203 89.6748 14.0434L89.8015 13.9386C90.0549 13.8269 90.2484 13.736 90.3822 13.6662C90.5159 13.5893 90.6426 13.488 90.7622 13.3622C90.8819 13.2295 91.0543 13.0269 91.2796 12.7544C91.0332 12.9221 90.7974 13.0443 90.5722 13.1212C90.3822 13.1911 90.2203 13.2749 90.0866 13.3727C89.9599 13.4635 89.8824 13.6103 89.8543 13.8129H89.7065C89.6924 13.8967 89.6502 13.9491 89.5798 13.9701C89.5094 13.991 89.4285 14.0015 89.337 14.0015L89.1892 14.1063L89.2103 14.1273C89.2948 14.1972 89.3581 14.2356 89.4003 14.2426H89.432Z" fill="white"/>
<path d="M94.6263 20.1429C94.4996 20.1429 94.3694 20.1219 94.2356 20.08C94.1512 20.0591 94.0878 19.9892 94.0456 19.8704C93.9963 19.7516 93.9259 19.6818 93.8344 19.6608L93.8556 19.6503C93.7993 19.5246 93.7289 19.4023 93.6444 19.2835C93.6092 19.2486 93.567 19.2276 93.5177 19.2207C93.4755 19.2207 93.4262 19.2346 93.3699 19.2626C93.3136 19.2905 93.2643 19.3045 93.2221 19.3045C93.1588 19.3045 93.1271 19.2521 93.1271 19.1473L93.1377 19.032C93.1377 18.9761 93.1271 18.9272 93.106 18.8853C93.0778 18.8364 93.0462 18.7875 93.011 18.7386C92.9758 18.6897 92.9476 18.6303 92.9265 18.5604L92.916 18.4346C92.916 18.3997 92.923 18.3648 92.9371 18.3298C93.0567 18.1342 93.1517 17.9281 93.2221 17.7115C93.3066 17.439 93.4333 17.184 93.6022 16.9465C93.8837 16.5831 94.0562 16.1639 94.1195 15.6888C94.1688 15.3535 94.2955 15.053 94.4996 14.7875C94.9007 14.2775 95.1189 13.6941 95.1541 13.0373C95.1541 12.7509 95.228 12.3771 95.3758 11.916C96.5231 8.31078 97.1636 6.37544 97.2973 6.10994C97.3606 5.9772 97.4134 5.84794 97.4556 5.72218C97.4979 5.58943 97.5683 5.47764 97.6668 5.38681C97.892 5.1842 98.068 5.08289 98.1947 5.08289C98.258 5.08289 98.3073 5.10385 98.3425 5.14577C98.4551 5.27153 98.5923 5.36236 98.7542 5.41825C98.8527 5.46017 98.9442 5.50908 99.0287 5.56498C99.1132 5.62087 99.1765 5.70471 99.2187 5.8165C99.261 5.88637 99.3208 5.95274 99.3982 6.01562L99.4932 6.08898C99.6551 6.25667 99.7712 6.38592 99.8416 6.47675C99.919 6.56758 99.9578 6.66889 99.9578 6.78068C99.9578 6.9274 99.9085 7.137 99.81 7.40949C99.3595 8.84178 98.8633 10.2601 98.3214 11.6644C98.1524 12.1186 98.0011 12.5797 97.8674 13.0478C97.6774 13.7116 97.1917 15.1019 96.4105 17.2189C96.3753 17.3168 96.3471 17.4111 96.326 17.5019L96.2943 17.5753C96.1184 18.2809 95.8404 18.9132 95.4603 19.4722C95.3899 19.563 95.3442 19.6713 95.323 19.7971C95.316 19.8669 95.2984 19.9298 95.2703 19.9857C95.2491 20.0346 95.2034 20.0661 95.133 20.08C94.9641 20.1219 94.7952 20.1429 94.6263 20.1429ZM94.679 15.1439C94.7987 15.0321 94.9007 14.8819 94.9852 14.6932C95.0697 14.4976 95.1717 14.2251 95.2914 13.8758C95.4884 13.233 95.953 12.0592 96.685 10.3544C96.1219 11.4583 95.7031 12.3142 95.4286 12.9221C95.1612 13.5229 94.9782 13.9841 94.8796 14.3054C94.7811 14.6199 94.7142 14.8993 94.679 15.1439Z" fill="white"/>
<path d="M99.261 20.2582L98.9548 19.6818C98.9267 19.6259 98.8774 19.5979 98.807 19.5979L98.5747 19.6084C98.4973 19.6084 98.4516 19.5944 98.4375 19.5665C98.4164 19.5316 98.4058 19.4722 98.4058 19.3883C98.3988 19.2975 98.3741 19.2207 98.3319 19.1578C98.2897 19.0949 98.2475 19.039 98.2052 18.9901C98.156 18.9342 98.1137 18.8818 98.0785 18.8329C98.0433 18.784 98.0257 18.7281 98.0257 18.6652C98.0257 18.5953 98.0539 18.515 98.1102 18.4242C98.2299 18.2076 98.3002 17.9805 98.3214 17.7429C98.3354 17.5054 98.3671 17.3098 98.4164 17.1561C98.4656 16.9954 98.5044 16.8277 98.5325 16.653C98.6592 16.0452 98.8246 15.4478 99.0287 14.8609C99.1484 14.4976 99.2575 14.1343 99.356 13.771C99.6797 12.6531 100.074 11.4968 100.538 10.302C101.003 9.10029 101.422 7.87411 101.795 6.62347C101.844 6.37195 101.988 6.24619 102.228 6.24619L102.439 6.25667C102.572 6.25667 102.706 6.24619 102.84 6.22523C102.91 6.21125 102.984 6.20077 103.062 6.19379L103.051 6.17283H103.231L103.22 6.19379L103.473 6.15187L103.463 6.16235C103.512 6.23221 103.568 6.27763 103.632 6.29859C103.702 6.31256 103.769 6.31955 103.832 6.31955C103.896 6.31955 103.952 6.32304 104.001 6.33003C104.325 6.39291 104.536 6.58854 104.635 6.91692C104.79 7.32914 104.895 7.75184 104.951 8.18502L105.004 8.55183C105.152 9.34832 105.247 10.1832 105.289 11.0566C105.303 11.4898 105.346 11.923 105.416 12.3561C105.486 12.7823 105.522 13.2155 105.522 13.6557C105.522 14.019 105.504 14.3788 105.469 14.7351C105.469 14.819 105.5 14.8644 105.564 14.8714C105.613 14.8714 105.652 14.8364 105.68 14.7666C105.778 14.522 105.845 14.267 105.88 14.0015C105.909 13.8059 105.947 13.6138 105.997 13.4251C106.011 13.3692 106.021 13.3098 106.028 13.2469C106.035 13.1561 106.053 13.0723 106.081 12.9954C106.215 12.5832 106.338 12.171 106.451 11.7588L106.672 10.9623C106.869 10.3055 107.049 9.61033 107.211 8.87671C107.351 8.21995 107.513 7.57018 107.696 6.9274C107.781 6.67587 107.841 6.41038 107.876 6.13091C107.876 5.99816 107.893 5.85842 107.929 5.7117C107.957 5.59292 108.02 5.48812 108.119 5.39729C108.147 5.36935 108.161 5.33092 108.161 5.28201C108.168 5.2331 108.178 5.19468 108.193 5.16673C108.207 5.13179 108.242 5.11433 108.298 5.11433H108.372C108.534 5.11433 108.636 5.16324 108.678 5.26105C108.685 5.26105 108.689 5.26454 108.689 5.27153C108.696 5.27153 108.699 5.27852 108.699 5.29249V5.25057C108.826 5.37633 108.963 5.48113 109.111 5.56498C109.308 5.67676 109.488 5.84095 109.649 6.05754C109.72 6.12741 109.755 6.20077 109.755 6.27763L109.734 6.47675C109.734 6.63745 109.776 6.79116 109.861 6.93788C109.875 6.96583 109.882 6.99377 109.882 7.02172C109.882 7.05665 109.875 7.09159 109.861 7.12652C109.847 7.15447 109.84 7.18591 109.84 7.22084C109.804 7.52826 109.78 7.84267 109.766 8.16406L109.776 8.3003C109.748 8.44004 109.702 8.57628 109.639 8.70903C109.547 8.86274 109.502 9.02344 109.502 9.19112C109.502 9.24701 109.509 9.3064 109.523 9.36928C109.544 9.43216 109.554 9.49504 109.554 9.55792C109.554 9.69766 109.53 9.8374 109.481 9.97713C109.431 10.1169 109.407 10.2636 109.407 10.4173C109.407 10.4872 109.386 10.564 109.343 10.6479C109.188 10.8575 109.111 11.123 109.111 11.4444L109.132 11.9998C109.132 12.2234 109.1 12.4365 109.037 12.6391L108.815 13.3413C108.569 14.2356 108.256 15.1054 107.876 15.9508C107.862 15.9858 107.855 16.0242 107.855 16.0661L107.865 16.2548C107.865 16.3596 107.82 16.4329 107.728 16.4748C107.637 16.5098 107.591 16.5482 107.591 16.5901C107.591 16.632 107.605 16.674 107.633 16.7159C107.661 16.7578 107.675 16.7997 107.675 16.8417C107.675 16.8626 107.672 16.8801 107.665 16.8941C107.587 17.0478 107.549 17.2085 107.549 17.3761C107.542 17.5089 107.52 17.6347 107.485 17.7534C107.323 18.1936 107.239 18.6477 107.232 19.1159C107.232 19.2696 107.204 19.4093 107.147 19.5351C107.091 19.6608 106.971 19.7447 106.788 19.7866C106.704 19.8425 106.637 19.9158 106.588 20.0067C106.56 20.0556 106.528 20.0975 106.493 20.1324C106.465 20.1743 106.422 20.1953 106.366 20.1953C106.345 20.1883 106.32 20.1813 106.292 20.1743C106.271 20.1743 106.246 20.1709 106.218 20.1639C106.19 20.1639 106.158 20.1639 106.123 20.1639L105.733 20.1848C105.641 20.1848 105.543 20.1674 105.437 20.1324C105.339 20.0975 105.222 20.08 105.089 20.08H104.867C104.684 20.0661 104.592 19.9717 104.592 19.7971C104.592 19.6923 104.575 19.6014 104.54 19.5246C104.512 19.4477 104.434 19.3953 104.307 19.3674C104.223 19.3604 104.163 19.2661 104.128 19.0844L104.117 19.0739L103.97 18.5185C103.751 17.8198 103.597 17.1037 103.505 16.37C103.498 16.3002 103.48 16.2373 103.452 16.1814C103.431 16.1255 103.417 16.0696 103.41 16.0137C103.213 15.0705 103.072 14.2251 102.988 13.4775C102.974 13.0443 102.872 12.6181 102.682 12.1989C102.548 12.4365 102.453 12.6915 102.397 12.964C102.347 13.2295 102.27 13.488 102.164 13.7395C102.129 13.8303 101.974 14.302 101.7 15.1543L101.299 16.3805C101.284 16.4574 101.256 16.5203 101.214 16.5692C100.947 16.8626 100.774 17.198 100.697 17.5753C100.633 17.7988 100.549 18.0154 100.443 18.225C100.387 18.3298 100.359 18.4416 100.359 18.5604C100.359 18.6792 100.387 18.7945 100.443 18.9062C100.493 18.9901 100.517 19.0669 100.517 19.1368C100.517 19.2346 100.489 19.3289 100.433 19.4198L100.369 19.5665C100.362 19.5875 100.341 19.6154 100.306 19.6503C100.278 19.6853 100.25 19.7027 100.222 19.7027C100.194 19.7027 100.162 19.6923 100.127 19.6713C100.099 19.6503 100.067 19.6399 100.032 19.6399C100.004 19.6399 99.9718 19.6608 99.9366 19.7027C99.9085 19.7377 99.8944 19.7726 99.8944 19.8075C99.8944 19.8355 99.8979 19.8599 99.905 19.8809C99.919 19.8949 99.9331 19.9158 99.9472 19.9438C99.9683 19.9647 99.9789 19.9892 99.9789 20.0171C99.9789 20.0591 99.9648 20.0975 99.9366 20.1324C99.8874 20.1953 99.7255 20.2337 99.451 20.2477L99.261 20.2582ZM99.3982 16.632C99.546 16.5692 99.6199 16.4679 99.6199 16.3281C99.6199 16.2652 99.5988 16.1919 99.5566 16.108L99.4827 16.2757C99.4404 16.3456 99.4017 16.4259 99.3665 16.5168C99.3665 16.5377 99.3701 16.5587 99.3771 16.5796C99.3841 16.6006 99.3912 16.6181 99.3982 16.632ZM99.4932 15.2487C99.5988 15.1229 99.6868 14.9657 99.7572 14.7771C99.8275 14.5884 99.9085 14.3264 100 13.991C100.148 13.3622 100.514 12.2024 101.098 10.5116C100.633 11.6085 100.289 12.4574 100.063 13.0583C99.8451 13.6522 99.7009 14.1063 99.6305 14.4207C99.5601 14.7351 99.5143 15.0111 99.4932 15.2487ZM105.247 15.2801C105.015 13.5264 104.885 12.3247 104.856 11.6749C104.835 11.3186 104.811 11.0426 104.783 10.847C104.754 10.6444 104.698 10.4697 104.614 10.323C104.592 10.5046 104.582 10.7107 104.582 10.9413C104.582 11.2767 104.628 11.7623 104.719 12.3981C104.811 13.0269 104.987 13.9875 105.247 15.2801ZM107.105 10.2601C107.211 10.1273 107.292 9.96665 107.348 9.77801C107.411 9.58238 107.482 9.30989 107.559 8.96055C107.679 8.32476 107.985 7.15447 108.478 5.44969C107.689 7.6156 107.253 9.01296 107.168 9.64177C107.14 9.86534 107.119 10.0715 107.105 10.2601Z" fill="white"/>
<path d="M109.945 20.3316C109.896 20.3316 109.868 20.3141 109.861 20.2792C109.797 20.1324 109.699 20.0171 109.565 19.9333C109.396 19.8075 109.298 19.6783 109.269 19.5455C109.248 19.4617 109.178 19.4023 109.058 19.3674C108.932 19.3324 108.868 19.2835 108.868 19.2207L108.879 19.1787C108.942 19.0739 108.974 18.9761 108.974 18.8853C108.974 18.7735 108.935 18.6652 108.858 18.5604L108.837 18.487C108.844 18.4381 108.851 18.3927 108.858 18.3508C108.858 18.3089 108.872 18.26 108.9 18.2041C109.069 17.7499 109.192 17.2853 109.269 16.8102C109.326 16.5377 109.389 16.2687 109.459 16.0032L109.586 15.5211C109.769 14.7805 110.005 14.0504 110.293 13.3308C110.42 13.0304 110.526 12.7229 110.61 12.4085C110.674 12.178 110.744 11.9509 110.821 11.7273L110.927 11.4339C111.004 11.1614 111.113 10.8959 111.254 10.6374C111.367 10.4208 111.427 10.1867 111.434 9.93521C111.448 9.61382 111.518 9.29941 111.645 8.99199C111.779 8.67759 112 8.37017 112.31 8.06974L112.331 7.91254C112.099 7.86363 111.944 7.8252 111.867 7.79725L111.772 7.77629C111.694 7.75533 111.589 7.74485 111.455 7.74485C111.286 7.74485 111.191 7.65752 111.17 7.48285C111.17 7.3501 111.142 7.23482 111.085 7.137C111.036 7.03919 110.962 6.94487 110.864 6.85404C110.73 6.73526 110.663 6.60601 110.663 6.46627C110.663 6.36147 110.695 6.26365 110.758 6.17283C110.821 6.082 110.913 6.01562 111.033 5.9737C111.23 5.91082 111.423 5.83746 111.613 5.75362C111.803 5.66279 112 5.58244 112.204 5.51257C112.408 5.44271 112.627 5.40777 112.859 5.40777C112.894 5.40777 112.922 5.40079 112.943 5.38681C113.176 5.26804 113.411 5.19118 113.651 5.15625C113.89 5.12131 114.133 5.10385 114.379 5.10385L116.153 5.11433C116.575 5.11433 116.969 5.18769 117.335 5.33441C117.701 5.48113 118.057 5.66279 118.402 5.87938C118.873 6.20077 119.26 6.58854 119.563 7.04268C119.676 7.19639 119.792 7.34311 119.911 7.48285C120.115 7.74835 120.228 8.06974 120.249 8.44703L120.291 8.81383C120.362 9.15618 120.397 9.50203 120.397 9.85137C120.383 10.2356 120.341 10.6199 120.27 11.0042C119.989 12.2478 119.482 13.3902 118.75 14.4312C118.44 14.8714 118.138 15.3185 117.842 15.7727C117.539 16.2059 117.187 16.5936 116.786 16.936L116.375 17.3342C115.987 17.6766 115.562 17.9491 115.097 18.1517C114.83 18.2774 114.566 18.4207 114.305 18.5814L114.147 18.6862C113.929 18.8119 113.784 18.9482 113.714 19.0949C113.644 19.2346 113.535 19.3255 113.387 19.3674C113.302 19.3883 113.218 19.4163 113.133 19.4512C113.056 19.4862 112.891 19.5316 112.637 19.5875C112.166 19.6643 111.705 19.7971 111.254 19.9857C111.057 20.1045 110.842 20.1639 110.61 20.1639L110.42 20.1534C110.279 20.1534 110.153 20.2023 110.04 20.3001C110.012 20.3211 109.98 20.3316 109.945 20.3316ZM112.183 17.3552L112.247 17.3447L112.373 17.3133C112.88 17.0757 113.362 16.8032 113.82 16.4958C114.277 16.1884 114.675 15.8006 115.013 15.3325C115.09 15.2347 115.178 15.1439 115.277 15.06C115.382 14.9762 115.516 14.819 115.678 14.5884L115.741 14.5046C116.199 13.8548 116.582 13.1771 116.892 12.4714C117.209 11.7657 117.501 11.0461 117.768 10.3125C117.951 9.85137 118.043 9.4636 118.043 9.1492C118.043 9.06536 118.036 8.98501 118.022 8.90815V8.1955C118.022 8.0907 117.997 7.99987 117.948 7.92302C117.898 7.83917 117.842 7.76232 117.779 7.69245C117.715 7.6156 117.656 7.53176 117.599 7.44093H117.314C117.216 7.44093 117.128 7.4549 117.05 7.48285C116.839 7.5597 116.631 7.59813 116.427 7.59813L116.016 7.58765C115.734 7.58765 115.47 7.64704 115.224 7.76581C115.083 7.82869 114.985 7.9335 114.928 8.08022L114.611 8.93959C113.929 10.826 113.528 11.9893 113.408 12.4295C113.331 12.709 113.183 13.1876 112.965 13.8653C112.591 14.9902 112.306 15.9369 112.109 16.7054L111.993 17.177C111.993 17.2259 112.011 17.2678 112.046 17.3028C112.088 17.3377 112.134 17.3552 112.183 17.3552ZM115.298 7.28373C115.53 7.28373 115.783 7.26276 116.058 7.22084L116.417 7.17892L116.216 7.04268C116.118 6.97281 116.03 6.91692 115.952 6.875C115.882 6.83308 115.804 6.81212 115.72 6.81212C115.417 6.81212 115.21 6.84705 115.097 6.91692C114.992 6.9798 114.939 7.04268 114.939 7.10556C114.939 7.20338 115.058 7.26276 115.298 7.28373ZM109.935 14.9028C110.047 14.791 110.142 14.6443 110.22 14.4627C110.304 14.274 110.406 14.012 110.526 13.6766C110.716 13.0548 111.166 11.9195 111.877 10.2706C111.335 11.3396 110.93 12.1675 110.663 12.7544C110.396 13.3343 110.213 13.7779 110.114 14.0854C110.023 14.3928 109.963 14.6653 109.935 14.9028Z" fill="white"/>
<path d="M123.364 8.92911L123.427 8.91863L123.606 8.76143V8.64615L123.49 8.68807L123.364 8.92911ZM123.437 17.8163C123.557 17.8163 123.723 17.7569 123.934 17.6381C124.279 17.4425 124.578 17.1875 124.831 16.8731C124.859 16.8312 124.894 16.7893 124.937 16.7473C125.183 16.4469 125.412 16.129 125.623 15.7936C125.7 15.6749 125.788 15.5596 125.887 15.4478C126.154 15.1474 126.299 14.8644 126.32 14.5989C126.58 14.3474 126.76 14.0504 126.858 13.7081C126.9 13.5963 126.95 13.4845 127.006 13.3727C127.513 12.2059 127.879 11.0077 128.104 9.77801L128.136 9.45312V9.40072C128.136 9.20509 128.178 9.01296 128.262 8.82431C128.29 8.75444 128.304 8.69156 128.304 8.63567C128.304 8.53087 128.248 8.39812 128.136 8.23742C128.058 8.11865 127.995 7.97192 127.946 7.79725C127.924 7.62957 127.861 7.50032 127.755 7.40949C127.678 7.34661 127.59 7.31517 127.492 7.31517C127.428 7.31517 127.365 7.33613 127.302 7.37805L127.196 7.43045C126.943 7.5632 126.721 7.74136 126.531 7.96494C126.362 8.20947 126.189 8.45052 126.014 8.68807C125.556 9.27496 125.151 9.90028 124.799 10.564C124.645 10.9064 124.433 11.0776 124.166 11.0776L124.05 11.0671C123.979 11.0671 123.934 11.1055 123.913 11.1824C123.821 11.4758 123.712 11.7657 123.585 12.0522C123.445 12.3736 123.325 12.7055 123.226 13.0478C123.191 13.1806 123.149 13.3133 123.1 13.4461C123.05 13.5718 123.005 13.7011 122.962 13.8338C122.927 13.9666 122.91 14.1063 122.91 14.253C122.91 14.3299 122.917 14.3963 122.931 14.4522C122.945 14.5011 122.952 14.5535 122.952 14.6094C122.952 14.6653 122.941 14.7212 122.92 14.7771C122.836 14.9517 122.793 15.1334 122.793 15.322L122.804 15.7727C122.804 15.9194 122.779 16.0417 122.73 16.1395C122.688 16.2373 122.667 16.3351 122.667 16.4329C122.667 16.6216 122.702 16.8102 122.772 16.9989C122.822 17.1526 122.853 17.3063 122.867 17.46C122.889 17.6137 122.948 17.7115 123.047 17.7534C123.145 17.7953 123.276 17.8163 123.437 17.8163ZM123.554 20.1743C122.885 20.1743 122.255 19.9717 121.664 19.5665C121.453 19.4268 121.171 19.018 120.819 18.3403C120.65 18.005 120.534 17.6521 120.471 17.2818C120.45 17.1281 120.418 16.9779 120.376 16.8312C120.291 16.4748 120.249 16.129 120.249 15.7936C120.249 15.619 120.267 15.4548 120.302 15.3011C120.281 15.1334 120.27 14.9692 120.27 14.8085C120.27 14.3474 120.334 13.9037 120.46 13.4775C121.087 11.3955 121.769 9.85486 122.508 8.85575C122.607 8.70903 122.691 8.55881 122.762 8.4051C122.896 8.11865 123.082 7.87062 123.321 7.66101C123.554 7.10906 123.927 6.68985 124.44 6.40339C124.574 6.30558 124.673 6.1868 124.736 6.04706C124.856 5.82349 125.046 5.67676 125.306 5.6069C125.517 5.551 125.658 5.47065 125.728 5.36585C125.799 5.26105 125.908 5.19817 126.056 5.17721C126.598 5.03747 127.08 4.96761 127.502 4.96761C128.192 4.96761 128.878 5.22612 129.561 5.74314C129.758 5.90383 129.909 6.09946 130.015 6.33003C130.31 6.86801 130.511 7.39901 130.617 7.92302C130.574 8.01384 130.553 8.10817 130.553 8.20598C130.553 8.33174 130.571 8.45751 130.606 8.58327C130.641 8.70903 130.659 8.84877 130.659 9.00248C130.659 9.15618 130.662 9.28893 130.669 9.40072C130.676 9.50552 130.68 9.61033 130.68 9.71513C130.68 9.84788 130.666 9.98412 130.638 10.1239C130.539 10.6269 130.49 11.1544 130.49 11.7064C130.49 11.8112 130.486 11.874 130.479 11.895C130.346 12.2234 130.251 12.5622 130.194 12.9116C130.117 13.3587 130.053 13.6103 130.004 13.6662C129.955 13.7151 129.93 13.764 129.93 13.8129C129.923 14.1133 129.856 14.3893 129.73 14.6408C129.61 14.8854 129.469 15.1194 129.307 15.343C129.223 15.4687 129.135 15.6085 129.043 15.7622C128.959 15.9089 128.864 16.0626 128.758 16.2233C128.66 16.377 128.565 16.5342 128.473 16.6949C128.234 17.1071 127.942 17.474 127.597 17.7953C127.477 17.9141 127.372 18.0469 127.28 18.1936C127.189 18.3333 127.073 18.4661 126.932 18.5918C126.404 19.032 125.859 19.4058 125.296 19.7132C124.733 20.0206 124.152 20.1743 123.554 20.1743ZM121.178 15.1334C121.284 15.0076 121.372 14.8504 121.442 14.6618C121.513 14.4661 121.59 14.1972 121.674 13.8548C121.829 13.219 122.199 12.0417 122.783 10.323C122.318 11.4409 121.974 12.3037 121.748 12.9116C121.53 13.5194 121.382 13.9806 121.305 14.295C121.235 14.6094 121.192 14.8888 121.178 15.1334Z" fill="white"/>
<path d="M131.155 20.2687C131.049 20.2687 130.965 20.2337 130.902 20.1639C130.845 20.094 130.793 20.0102 130.743 19.9123C130.694 19.8075 130.631 19.7097 130.553 19.6189C130.483 19.5211 130.377 19.4407 130.236 19.3779C130.089 19.308 129.965 19.2067 129.867 19.0739C129.761 18.9412 129.666 18.798 129.582 18.6442L129.466 18.4451L129.445 18.3613L129.719 17.0303C129.726 16.9744 129.744 16.929 129.772 16.8941C130.103 16.4399 130.342 15.9404 130.49 15.3954L130.585 15.1229L130.722 14.6827C130.884 14.2426 131.018 13.7849 131.123 13.3098C131.236 12.8627 131.419 12.4365 131.672 12.0312C131.799 11.8356 131.876 11.6644 131.905 11.5177C131.954 11.1893 132.042 10.8714 132.168 10.564C132.253 10.3544 132.33 10.1099 132.401 9.83041C132.429 9.68369 132.471 9.53696 132.527 9.39024C132.591 9.24352 132.689 9.11426 132.823 9.00248L132.844 8.99199L132.865 8.95007C133.069 8.78938 133.193 8.54135 133.235 8.20598C133.305 7.77979 133.404 7.36058 133.53 6.94836C133.601 6.68985 133.668 6.42784 133.731 6.16235C133.787 5.92479 133.896 5.68724 134.058 5.44969C134.22 5.21214 134.414 5.09337 134.639 5.09337C134.674 5.09337 134.706 5.10035 134.734 5.11433C134.994 5.19118 135.251 5.27852 135.505 5.37633C135.652 5.41825 135.744 5.51956 135.779 5.68026V5.69074C135.786 5.72567 135.793 5.7641 135.8 5.80602C135.807 5.84095 135.825 5.8689 135.853 5.88986C136.029 6.05754 136.117 6.24619 136.117 6.45579C136.117 6.58854 136.096 6.72478 136.054 6.86452C135.793 7.90555 135.491 8.90117 135.146 9.85137C134.801 10.7946 134.435 11.7483 134.048 12.7125L133.71 13.5823C133.661 13.729 133.594 13.8862 133.509 14.0539C133.291 14.4522 133.122 14.8679 133.003 15.3011C132.89 15.7273 132.791 16.1604 132.707 16.6006L132.696 16.6216C132.696 16.6355 132.7 16.6565 132.707 16.6844C132.721 16.7124 132.732 16.7508 132.739 16.7997C133.02 16.1849 133.245 15.5701 133.414 14.9552L133.425 14.9028C133.453 14.798 133.485 14.7386 133.52 14.7247C133.562 14.7107 133.59 14.7037 133.604 14.7037C133.618 14.7107 133.636 14.7281 133.657 14.7561C133.678 14.7771 133.689 14.7945 133.689 14.8085C133.647 14.9482 133.608 15.0915 133.573 15.2382C133.523 15.4687 133.453 15.6958 133.361 15.9194C133.284 16.0801 133.217 16.2408 133.161 16.4015C133.105 16.5552 133.076 16.7159 133.076 16.8836L133.098 17.1037C133.21 17.1595 133.319 17.1875 133.425 17.1875C133.516 17.1875 133.597 17.1735 133.668 17.1456C133.893 17.0617 134.122 17.0198 134.354 17.0198H134.407C134.519 17.0198 134.632 17.0128 134.744 16.9989C135.357 16.929 135.962 16.8451 136.56 16.7473C136.736 16.7194 136.916 16.7054 137.099 16.7054C137.282 16.7054 137.451 16.7264 137.606 16.7683C137.76 16.8032 137.848 16.922 137.869 17.1246C137.869 17.2644 137.877 17.3796 137.891 17.4705C137.912 17.5613 137.957 17.6486 138.028 17.7325C138.049 17.7604 138.06 17.7849 138.06 17.8058C138.06 17.8408 138.042 17.8687 138.007 17.8897C137.979 17.9106 137.947 17.9316 137.912 17.9526C137.827 17.9875 137.785 18.0329 137.785 18.0888C137.785 18.1028 137.799 18.1202 137.827 18.1412C137.855 18.1552 137.891 18.1761 137.933 18.2041C138.137 18.3229 138.239 18.4102 138.239 18.4661C138.239 18.494 138.228 18.529 138.207 18.5709C138.193 18.6128 138.183 18.6582 138.176 18.7071C138.162 18.8469 138.091 18.9377 137.965 18.9796C137.845 19.0145 137.722 19.053 137.595 19.0949C137.102 19.2626 136.589 19.3813 136.054 19.4512C135.659 19.5001 135.265 19.5665 134.871 19.6503C134.597 19.7132 134.322 19.7691 134.048 19.818C133.773 19.8599 133.499 19.9123 133.224 19.9752C132.95 20.0381 132.668 20.094 132.38 20.1429C132.098 20.1918 131.764 20.2163 131.377 20.2163C131.292 20.2512 131.218 20.2687 131.155 20.2687ZM135.864 6.27763L135.906 6.26715L135.864 6.24619V6.27763ZM130.849 14.9867C130.961 14.8749 131.056 14.7281 131.134 14.5465C131.218 14.3648 131.317 14.1098 131.429 13.7814C131.619 13.1666 132.063 12.0452 132.76 10.4173C132.225 11.4653 131.827 12.2793 131.567 12.8592C131.306 13.4391 131.127 13.8827 131.028 14.1902C130.937 14.4906 130.877 14.7561 130.849 14.9867ZM133.224 19.7971L133.393 19.7866C133.548 19.7656 133.766 19.7202 134.048 19.6503C134.54 19.5036 135.561 19.294 137.109 19.0215L136.011 19.1473C134.78 19.294 133.946 19.4407 133.509 19.5875C133.361 19.6364 133.196 19.6992 133.013 19.7761L133.224 19.7971Z" fill="white"/>
<path d="M146.981 20.2477C146.945 20.2477 146.928 20.2372 146.928 20.2163C146.843 19.839 146.745 19.6503 146.632 19.6503C146.548 19.6503 146.439 19.7726 146.305 20.0171C146.277 20.0661 146.242 20.0905 146.199 20.0905C146.143 20.0905 146.087 20.0626 146.03 20.0067C145.974 19.9508 145.932 19.8879 145.904 19.818C145.791 19.4757 145.64 19.1508 145.45 18.8434C145.379 18.7106 145.344 18.5744 145.344 18.4346V16.674C145.344 16.5342 145.327 16.4364 145.291 16.3805C145.263 16.3246 145.196 16.2967 145.091 16.2967L144.795 16.3281C144.352 16.3561 143.922 16.4224 143.507 16.5272C143.092 16.632 142.67 16.7019 142.24 16.7368C142.008 16.7508 141.825 16.8941 141.691 17.1665C141.093 18.3543 140.674 19.1717 140.435 19.6189C140.217 20.0102 139.925 20.2058 139.559 20.2058C139.369 20.2058 139.165 20.1534 138.946 20.0486C138.862 20.0067 138.792 19.9613 138.735 19.9123C138.679 19.8565 138.64 19.7796 138.619 19.6818C138.598 19.584 138.556 19.4966 138.492 19.4198C138.387 19.301 138.334 19.1892 138.334 19.0844C138.334 18.9377 138.411 18.8014 138.566 18.6757C138.841 18.3892 138.985 18.0643 138.999 17.701C139.041 17.3307 139.15 16.9989 139.326 16.7054C139.39 16.5727 139.421 16.4294 139.421 16.2757C139.421 16.1639 139.414 16.0521 139.4 15.9404C139.379 15.8216 139.369 15.6958 139.369 15.5631V15.5211C139.369 15.3465 139.464 15.1998 139.654 15.081C139.844 14.9622 140.034 14.8679 140.224 14.798L140.308 14.7561C140.716 14.5744 140.945 14.2705 140.994 13.8443C141.009 13.7325 141.03 13.6382 141.058 13.5614C141.086 13.4775 141.1 13.4042 141.1 13.3413V13.2993C141.17 13.2435 141.227 13.1876 141.269 13.1317C141.318 13.0758 141.343 12.9989 141.343 12.9011L141.322 12.7229C141.322 12.5902 141.392 12.4924 141.533 12.4295C141.674 12.3666 141.973 12.3352 142.43 12.3352C142.458 12.3352 142.487 12.3177 142.515 12.2828C142.543 12.2409 142.557 12.1989 142.557 12.157L142.536 12.0941C142.212 11.9264 142.05 11.7623 142.05 11.6016C142.05 11.4828 142.1 11.364 142.198 11.2452C142.444 10.8121 142.68 10.3754 142.905 9.93521C143.651 8.49593 144.398 7.26975 145.144 6.25667L145.291 6.06802C145.552 5.67676 145.883 5.3379 146.284 5.05145C146.453 4.93267 146.622 4.87328 146.791 4.87328C146.889 4.87328 147.019 4.9187 147.181 5.00953C147.35 5.09337 147.494 5.13529 147.614 5.13529L147.741 5.12481C147.762 5.12481 147.793 5.13529 147.836 5.15625C147.885 5.17721 148.096 5.37983 148.469 5.7641C148.561 5.85493 148.649 5.94925 148.733 6.04706C148.825 6.13789 148.87 6.24619 148.87 6.37195V7.47237C148.87 7.80075 148.825 8.05926 148.733 8.2479L148.744 8.43655C148.744 8.69506 148.708 8.95357 148.638 9.21208C148.596 9.44264 148.564 9.66971 148.543 9.89329C148.529 10.4732 148.388 11.0461 148.121 11.612C148.121 11.6609 148.114 11.7029 148.1 11.7378C148.093 11.7657 148.089 11.8007 148.089 11.8426C148.152 12.1081 148.184 12.3771 148.184 12.6496C148.184 12.8801 148.174 13.1072 148.152 13.3308C148.131 13.5544 148.117 13.7675 148.11 13.9701C148.103 14.6338 148.012 15.2836 147.836 15.9194C147.808 16.0172 147.793 16.1115 147.793 16.2024C147.801 16.3002 147.808 16.7124 147.815 17.439C147.815 17.8233 147.829 18.2495 147.857 18.7176C147.857 19.1298 147.755 19.5351 147.551 19.9333C147.508 20.0102 147.466 20.0486 147.424 20.0486L147.382 20.0381C147.304 19.9962 147.244 19.9752 147.202 19.9752C147.111 19.9752 147.054 20.0521 147.033 20.2058C147.033 20.2337 147.016 20.2477 146.981 20.2477ZM144.077 13.991C144.169 13.991 144.331 13.9666 144.563 13.9177C144.802 13.8478 145.045 13.8129 145.291 13.8129C145.348 13.8129 145.393 13.7954 145.429 13.7605C145.464 13.7186 145.481 13.6731 145.481 13.6242C145.495 13.4007 145.527 13.1771 145.576 12.9535C145.647 12.709 145.682 12.4609 145.682 12.2094L145.661 11.8112C145.661 11.7203 145.675 11.633 145.703 11.5492C145.788 11.2767 145.83 10.9902 145.83 10.6898V10.6059C145.83 10.5221 145.833 10.4138 145.84 10.2811C145.854 10.1413 145.886 9.9422 145.935 9.68369C145.992 9.41819 146.076 9.06186 146.189 8.61471V8.44703C145.802 9.27147 145.52 9.85486 145.344 10.1972C145.098 10.6723 144.566 11.7343 143.75 13.3832L143.697 13.4775C143.634 13.5823 143.588 13.6976 143.56 13.8234C143.56 13.8653 143.574 13.9002 143.602 13.9282C143.658 13.9701 143.817 13.991 144.077 13.991ZM143.782 11.5911C143.894 11.5072 143.993 11.3989 144.077 11.2662C144.19 11.0985 144.327 10.847 144.489 10.5116C144.749 9.94569 145.341 8.8837 146.263 7.32565L145.524 8.4051C144.707 9.62081 144.197 10.4802 143.993 10.9832C143.922 11.1579 143.852 11.3605 143.782 11.5911ZM142.209 15.7412L142.367 15.7308C142.522 15.7098 142.74 15.6644 143.022 15.5945C143.507 15.4478 144.51 15.2417 146.03 14.9762L144.954 15.1019C143.736 15.2417 142.916 15.3849 142.494 15.5316C142.346 15.5805 142.18 15.6434 141.997 15.7203L142.209 15.7412Z" fill="white"/>
<path d="M69.526 47.077H68.8608C68.4174 47.077 67.9846 47.0455 67.5623 46.9827C67.2244 46.9093 66.9183 46.7731 66.6438 46.5739C66.3271 46.3434 66.1317 45.9766 66.0578 45.4735C66.0578 45.3687 65.9839 45.2901 65.8361 45.2377C65.6778 45.1748 65.5986 45.091 65.5986 44.9862C65.6092 44.8604 65.6408 44.7451 65.6936 44.6403C65.7358 44.5251 65.7622 44.415 65.7728 44.3102C65.7728 44.2683 65.7622 44.2159 65.7411 44.153C65.72 44.0901 65.6883 44.0482 65.6461 44.0272C65.5511 43.9748 65.4825 43.9067 65.4402 43.8229C65.3874 43.739 65.3452 43.6447 65.3135 43.5399C65.2713 43.4246 65.2027 43.3093 65.1077 43.1941C65.0127 43.0788 64.9651 42.953 64.9651 42.8168C64.9651 42.691 65.0074 42.5548 65.0918 42.4081C65.1869 42.188 65.2924 42.0779 65.4086 42.0779C65.4825 42.0779 65.588 42.1303 65.7253 42.2351C65.852 42.3399 65.9945 42.3923 66.1529 42.3923L66.3271 42.3609C66.5488 42.298 66.7705 42.2666 66.9922 42.2666C67.6467 42.2666 68.238 42.5024 68.7658 42.974C69.0192 43.2046 69.2884 43.3198 69.5735 43.3198C69.7529 43.3198 69.9483 43.2831 70.1594 43.2098C70.9618 42.9268 71.6955 42.5391 72.3606 42.0465C72.6035 41.8683 72.8093 41.6587 72.9782 41.4177C73.4005 40.967 73.6117 40.5635 73.6117 40.2072C73.6117 39.8195 73.3319 39.416 72.7724 38.9968L70.8404 37.3933C70.7665 37.3304 70.7031 37.2623 70.6503 37.1889C70.5975 37.1051 70.55 37.0422 70.5078 37.0003C70.4761 36.9584 70.4445 36.9217 70.4128 36.8902C70.2967 36.733 70.1911 36.644 70.0961 36.623C69.621 36.4972 69.2251 36.2614 68.9083 35.9156C68.7289 35.7374 68.5336 35.575 68.3224 35.4283C68.0901 35.3025 67.974 35.14 67.974 34.9409V34.6894C67.974 34.3121 67.9265 33.9401 67.8315 33.5733C67.7365 33.2065 67.689 32.8239 67.689 32.4257C67.7101 31.7549 67.8526 31.1261 68.1165 30.5392C68.4438 29.7532 68.9136 29.072 69.526 28.4956L70.0961 27.9611C70.5078 27.5524 70.9407 27.1646 71.3946 26.7978C72.5032 25.9594 73.7331 25.3725 75.0844 25.0372C75.5912 24.9114 76.1032 24.7909 76.6206 24.6756L77.3173 24.5184L77.7924 24.4712C78.0247 24.4712 78.315 24.5603 78.6634 24.7385L78.7901 24.7856C79.1068 24.9324 79.413 25.1105 79.7086 25.3201C79.8986 25.4459 80.0834 25.5612 80.2629 25.666C80.4423 25.7603 80.5321 25.8703 80.5321 25.9961C80.5321 26.0485 80.511 26.1166 80.4687 26.2005C80.4371 26.2738 80.4212 26.3472 80.4212 26.4205C80.4212 26.5568 80.4793 26.6878 80.5954 26.8135C80.7643 27.0651 80.8488 27.3428 80.8488 27.6467C80.8488 27.8563 80.8171 28.0712 80.7538 28.2913C80.6588 28.679 80.5162 29.0511 80.3262 29.4074L80.1679 29.769C79.8828 30.4502 79.5344 31.0999 79.1227 31.7183C79.0488 31.8336 78.996 31.9646 78.9643 32.1113C78.8376 32.6458 78.5314 33.0335 78.0458 33.2746C77.9719 33.306 77.9033 33.3584 77.8399 33.4318L77.7924 33.4789C77.5074 33.8143 77.2804 33.982 77.1115 33.982C77.0165 33.982 76.9214 33.9296 76.8264 33.8248C76.7314 33.72 76.6206 33.568 76.4939 33.3689C76.3038 33.0964 76.1877 32.7872 76.1455 32.4414C76.1138 32.2213 76.0557 32.0012 75.9713 31.7812L75.9554 31.7183C75.9554 31.6239 75.9871 31.5139 76.0505 31.3881L76.3355 30.7122C76.4728 30.3978 76.5994 30.0834 76.7156 29.769C76.8106 29.5384 76.8845 29.2921 76.9373 29.0301C76.9373 28.9672 76.9162 28.9253 76.8739 28.9043C76.8317 28.8729 76.7842 28.8572 76.7314 28.8572C76.3302 28.9515 76.0135 29.0458 75.7812 29.1401C74.1871 29.8318 72.8463 30.8537 71.7589 32.2056C71.516 32.499 71.3946 32.7715 71.3946 33.0231C71.3946 33.2851 71.5213 33.568 71.7747 33.8719L71.8539 33.982C71.97 34.1392 72.0967 34.2859 72.2339 34.4222C72.3712 34.5584 72.5401 34.6684 72.7407 34.7523C72.9518 34.8256 73.126 34.9462 73.2633 35.1138L75.512 37.3618C76.4094 38.2107 76.9426 39.2535 77.1115 40.4902C77.122 40.574 77.1431 40.6631 77.1748 40.7574C77.217 40.8413 77.2487 40.9251 77.2698 41.009C77.3226 41.3234 77.349 41.5382 77.349 41.6535C77.349 41.9365 77.2434 42.2037 77.0323 42.4552C76.6839 43.3251 76.1824 44.0534 75.5279 44.6403C74.8733 45.2272 74.166 45.7512 73.4058 46.2124C72.7618 46.6316 72.1706 46.8412 71.6322 46.8412C71.5055 46.8412 71.3735 46.8255 71.2363 46.794L71.0304 46.7783C70.7559 46.7783 70.4972 46.8202 70.2544 46.9041C70.0116 46.9879 69.7688 47.0455 69.526 47.077ZM70.5711 30.3034C70.8034 30.251 71.041 30.141 71.2838 29.9733C71.5372 29.8056 71.8644 29.5541 72.2656 29.2187C72.9941 28.5899 74.4404 27.5105 76.6047 25.9804C75.095 26.9026 73.9495 27.631 73.1683 28.1655C72.387 28.6895 71.8169 29.1087 71.458 29.4231C71.099 29.7375 70.8034 30.031 70.5711 30.3034ZM73.8492 45.0019L73.8967 44.9862C74.0023 44.9023 74.1132 44.7923 74.2293 44.6561L74.4035 44.4831C74.7624 44.284 75.0317 44.1163 75.2111 43.9801C75.4012 43.8438 75.5754 43.6709 75.7337 43.4613C75.9026 43.2517 76.1296 42.9268 76.4147 42.4867C76.0768 42.7696 75.7443 42.9897 75.417 43.1469C75.1425 43.2831 74.9155 43.4299 74.7361 43.5871C74.5566 43.7338 74.4668 43.9644 74.4668 44.2788L74.2293 44.3102C74.2293 44.436 74.1765 44.5198 74.0709 44.5617C73.9654 44.6037 73.8492 44.6351 73.7225 44.6561L73.5008 44.8133L73.5483 44.8447C73.6961 44.9495 73.7964 45.0019 73.8492 45.0019Z" fill="#8012DA"/>
<path d="M84.016 28.9672C84.28 28.9672 84.6442 28.9358 85.1087 28.8729C85.9111 28.7367 87.4789 28.6057 89.8121 28.4799L88.1176 28.4642C85.5627 28.4642 84.0002 28.6057 83.4301 28.8886C83.599 28.941 83.7943 28.9672 84.016 28.9672ZM84.4911 47.2185C84.3855 47.2185 84.28 47.1923 84.1744 47.1399L84.1586 47.1556C84.1586 47.0717 84.1427 47.0193 84.1111 46.9984C84.0794 46.9879 84.016 46.9827 83.921 46.9827C83.8366 46.9827 83.7838 46.9617 83.7627 46.9198C83.7521 46.8779 83.7468 46.8307 83.7468 46.7783C83.7468 46.6945 83.7521 46.6211 83.7627 46.5582C83.7732 46.4848 83.7785 46.4062 83.7785 46.3224C83.7785 46.1338 83.7046 46.0342 83.5568 46.0237C83.4829 46.0237 83.3984 46.0656 83.3034 46.1495C83.219 46.2333 83.1767 46.3224 83.1767 46.4167C83.1767 46.4586 83.182 46.4953 83.1926 46.5268C83.2137 46.5582 83.2242 46.5949 83.2242 46.6368C83.2137 46.8464 83.0923 46.9617 82.86 46.9827C82.7861 46.9827 82.7122 46.9617 82.6383 46.9198C82.5644 46.8674 82.5274 46.8097 82.5274 46.7469C82.5274 46.3067 82.3744 45.987 82.0682 45.7879C81.9943 45.746 81.9573 45.6884 81.9573 45.615C81.9573 45.5416 81.989 45.4683 82.0524 45.3949C82.3163 45.1119 82.4483 44.7923 82.4483 44.436L82.4324 44.1373C82.4324 44.0639 82.4483 43.9958 82.4799 43.9329C82.5222 43.8596 82.5486 43.7967 82.5591 43.7443C82.9075 42.3714 83.3615 41.0404 83.921 39.7513C84.2905 38.9024 84.5439 37.9959 84.6812 37.0317C84.8712 36.1409 85.114 35.2763 85.4096 34.4379C85.948 32.8344 86.497 31.2676 87.0566 29.7375L87.0882 29.5803C87.0882 29.4231 87.0302 29.3235 86.9141 29.2816C86.7979 29.2397 86.6343 29.2187 86.4231 29.2187C85.8636 29.3235 85.2988 29.3759 84.7287 29.3759C84.2958 29.3864 83.863 29.4179 83.4301 29.4703C83.2084 29.5227 82.992 29.5489 82.7808 29.5489C82.6013 29.5489 82.4905 29.4965 82.4483 29.3917C82.4166 29.2869 82.3955 29.1401 82.3849 28.9515C82.3849 28.8048 82.406 28.6895 82.4483 28.6057C82.501 28.5113 82.5274 28.4275 82.5274 28.3541C82.5274 28.1864 82.4007 28.0607 82.1474 27.9768C82.0735 27.7148 81.8782 27.4738 81.5614 27.2537C81.3608 27.1175 81.2605 26.9917 81.2605 26.8764C81.2605 26.8135 81.2922 26.7507 81.3556 26.6878C82.2424 25.9437 83.3773 25.5402 84.7603 25.4773C85.2037 25.4564 85.7105 25.4459 86.2806 25.4459C86.9352 25.4459 87.5211 25.383 88.0384 25.2572C88.3868 25.1839 88.7458 25.1367 89.1153 25.1158C89.5481 25.1053 89.9915 25.0476 90.4455 24.9428C91.3007 24.7856 92.1505 24.597 92.9951 24.3769C93.3858 24.3035 93.7869 24.2669 94.1987 24.2669H94.4046C94.6051 24.2669 94.8163 24.2564 95.038 24.2354C95.2491 24.2354 95.4708 24.314 95.7031 24.4712C95.8192 24.5446 95.9248 24.6075 96.0198 24.6599C96.1254 24.7018 96.1782 24.7385 96.1782 24.7699L96.1465 24.9743C96.1465 25.121 96.1835 25.2677 96.2574 25.4144C96.3418 25.5612 96.3841 25.7131 96.3841 25.8703C96.3841 25.9961 96.3524 26.1323 96.2891 26.2791C96.2257 26.4153 96.194 26.5673 96.194 26.7349C96.194 26.9341 96.2627 27.1332 96.3999 27.3323C96.4421 27.4057 96.4632 27.4895 96.4632 27.5838C96.4632 27.8458 96.3366 28.0659 96.0832 28.2441C95.8404 28.4223 95.5606 28.5113 95.2439 28.5113L93.9295 28.4956C92.8737 28.5061 92.2983 28.5271 92.2033 28.5585C92.1189 28.5795 92.045 28.6371 91.9816 28.7314C91.9288 28.8257 91.8655 28.9725 91.7916 29.1716C91.2637 30.4816 90.7306 31.7916 90.1921 33.1017C89.0097 36.0047 87.9962 38.8658 87.1516 41.6849C86.8771 42.5967 86.5868 43.5032 86.2806 44.4045C86.2067 44.6456 86.1592 44.9023 86.1381 45.1748C86.0747 46.118 85.5257 46.7993 84.4911 47.2185ZM86.7557 39.7985C86.9246 39.6203 87.0619 39.3898 87.1674 39.1068C87.2836 38.8238 87.4208 38.4203 87.5792 37.8963C87.8325 36.9531 88.4502 35.2134 89.432 32.6772C88.6719 34.3226 88.107 35.5959 87.7375 36.4972C87.368 37.388 87.1199 38.0693 86.9932 38.5409C86.8665 39.0125 86.7874 39.4317 86.7557 39.7985Z" fill="#8012DA"/>
<path d="M104.888 47.3442C104.825 47.3442 104.73 47.3128 104.603 47.2499C104.402 47.1241 104.175 47.0455 103.922 47.0141C103.795 47.0141 103.695 46.9774 103.621 46.9041C103.547 46.8202 103.479 46.7311 103.415 46.6368C103.363 46.532 103.299 46.4429 103.225 46.3696C103.035 46.2019 102.94 45.9975 102.94 45.7565L102.956 45.505C102.988 45.3163 103.004 45.1277 103.004 44.939L102.988 43.477C102.988 43.0159 103.046 42.6439 103.162 42.3609C103.204 42.2771 103.225 42.1827 103.225 42.0779C103.225 41.9627 103.209 41.8474 103.178 41.7321C103.178 41.6902 103.173 41.643 103.162 41.5906C103.151 41.5277 103.114 41.4753 103.051 41.4334C102.998 41.381 102.935 41.3548 102.861 41.3548C102.755 41.3548 102.56 41.5015 102.275 41.795C101.811 42.2456 101.578 42.581 101.578 42.8011V42.8482C101.599 42.953 101.61 43.0473 101.61 43.1312C101.61 43.3513 101.557 43.5399 101.452 43.6971C101.357 43.8438 101.246 43.9853 101.119 44.1216L100.913 44.3731C100.565 44.8657 100.174 45.3215 99.7413 45.7408C99.319 46.16 98.8176 46.5006 98.2369 46.7626C97.9624 46.8779 97.6879 46.9355 97.4134 46.9355C97.065 46.9355 96.421 46.7573 95.4814 46.401C95.4392 46.3905 95.4022 46.3748 95.3706 46.3538C95.3389 46.3329 95.3125 46.3172 95.2914 46.3067C95.133 46.2228 94.906 46.0552 94.6104 45.8036C94.3254 45.5416 94.0509 45.2744 93.7869 45.0019C93.5336 44.7189 93.3594 44.4989 93.2643 44.3416C93.1271 44.1216 93.0585 43.8858 93.0585 43.6342C93.0585 43.236 93.011 42.8377 92.916 42.4395L92.9001 42.2037C92.9001 41.8683 92.9687 41.5225 93.106 41.1662C93.201 40.8413 93.2696 40.5164 93.3119 40.1915C93.3752 39.6884 93.5072 39.2011 93.7078 38.7295C93.7183 38.6981 93.7236 38.6614 93.7236 38.6195C93.7236 38.5566 93.713 38.4885 93.6919 38.4151C93.6708 38.3313 93.6603 38.2631 93.6603 38.2107C93.6603 38.0326 93.6814 37.933 93.7236 37.9121C93.8714 37.8492 93.9664 37.7653 94.0086 37.6605C94.0509 37.5557 94.072 37.4457 94.072 37.3304V37.0946C94.1037 36.6544 94.2462 36.1723 94.4996 35.6483C94.848 35.0405 95.133 34.4012 95.3547 33.7305C95.5025 33.2903 95.6714 32.8606 95.8615 32.4414C96.1676 31.7392 96.4632 31.0318 96.7483 30.3192L97.2867 29.0144C97.329 28.8781 97.3817 28.7471 97.4451 28.6214L97.7618 28.0397C97.9941 27.5996 98.2422 27.1594 98.5061 26.7192C98.7173 26.3943 98.9179 26.1638 99.1079 26.0275C99.2979 25.8808 99.5355 25.8074 99.8205 25.8074C100.021 25.8074 100.259 25.8389 100.533 25.9018L101.214 26.7349C101.309 26.8188 101.388 26.9079 101.452 27.0022C101.515 27.086 101.547 27.1856 101.547 27.3009C101.547 27.3952 101.515 27.5 101.452 27.6153L101.42 27.7253C101.42 27.8092 101.473 27.8982 101.578 27.9926C101.747 28.1917 101.832 28.3908 101.832 28.5899C101.832 28.7891 101.768 28.9987 101.642 29.2187C101.357 29.7742 101.077 30.3349 100.802 30.9008C100.433 31.6554 100.053 32.3995 99.6622 33.1331C98.6381 35.0719 97.8093 37.0894 97.1759 39.1854C97.0914 39.4998 97.0228 39.809 96.97 40.1129C96.9172 40.4168 96.8592 40.705 96.7958 40.9775C96.7536 41.1242 96.7325 41.2762 96.7325 41.4334C96.7325 41.643 96.685 41.8474 96.5899 42.0465C96.5583 42.1199 96.5424 42.1932 96.5424 42.2666C96.5424 42.3819 96.5688 42.4971 96.6216 42.6124C96.6427 42.6753 96.6586 42.7382 96.6691 42.8011C96.6902 42.8639 96.7325 42.9163 96.7958 42.9583C96.8592 42.9897 96.9225 43.0054 96.9858 43.0054C97.0386 43.0054 97.0861 42.9897 97.1284 42.9583L97.4926 42.7225C97.9571 42.4605 98.3372 42.1199 98.6328 41.7006C99.0551 41.1033 99.5355 40.5688 100.074 40.0972L100.422 39.7671C101.784 38.457 102.872 36.9584 103.685 35.2711C103.78 35.051 103.89 34.8466 104.017 34.658L104.255 34.265C104.381 34.0973 104.466 33.9243 104.508 33.7462C104.635 33.1488 104.851 32.5986 105.157 32.0956L105.3 31.8283C105.902 30.5183 106.414 29.1821 106.836 27.8196C107.153 26.8555 107.496 25.907 107.865 24.9743C108.098 24.4922 108.42 24.2511 108.831 24.2511C109.074 24.2511 109.317 24.335 109.56 24.5027C109.591 24.5236 109.618 24.5498 109.639 24.5813C109.66 24.6127 109.686 24.6337 109.718 24.6441C110.13 24.8433 110.404 25.0896 110.542 25.383C110.689 25.6764 110.763 25.9909 110.763 26.3262C110.763 26.6301 110.732 26.9445 110.668 27.2694L110.652 27.3638C110.631 27.762 110.505 28.1707 110.272 28.5899C110.22 28.6633 110.188 28.7419 110.177 28.8257C110.04 29.727 109.797 30.6021 109.449 31.451C109.164 32.2161 108.847 33.2536 108.499 34.5636C108.288 35.3706 108.061 36.1723 107.818 36.9688C107.617 37.6291 107.448 38.2946 107.311 38.9653C107.174 39.636 107.005 40.3015 106.804 40.9618C106.72 41.1819 106.678 41.402 106.678 41.622L106.709 42.1565C106.709 42.6491 106.651 43.1364 106.535 43.6185C106.429 44.1006 106.308 44.5775 106.171 45.0491C106.002 45.5835 105.764 46.1023 105.458 46.6054L105.126 47.2027C105.062 47.2971 104.983 47.3442 104.888 47.3442ZM94.167 39.9557C94.3254 39.7775 94.4521 39.547 94.5471 39.264C94.6526 38.981 94.7741 38.588 94.9113 38.085C95.1225 37.1418 95.6609 35.4178 96.5266 32.913C95.8404 34.5374 95.3336 35.8003 95.0063 36.7016C94.679 37.5924 94.4626 38.2684 94.357 38.7295C94.2515 39.1906 94.1881 39.5994 94.167 39.9557ZM105.759 39.9557C105.917 39.7775 106.044 39.547 106.139 39.264C106.234 38.981 106.35 38.588 106.488 38.085C106.709 37.1418 107.248 35.4178 108.103 32.913C107.417 34.5374 106.91 35.8003 106.583 36.7016C106.266 37.5924 106.055 38.2684 105.949 38.7295C105.844 39.1906 105.78 39.5994 105.759 39.9557Z" fill="#8012DA"/>
<path d="M110.652 47.2656C110.579 47.2656 110.536 47.2394 110.526 47.187C110.431 46.9669 110.283 46.794 110.082 46.6683C109.829 46.4796 109.681 46.2857 109.639 46.0866C109.607 45.9608 109.502 45.8718 109.322 45.8194C109.132 45.767 109.037 45.6936 109.037 45.5993L109.053 45.5364C109.148 45.3792 109.196 45.2325 109.196 45.0962C109.196 44.9285 109.137 44.7661 109.021 44.6089L108.99 44.4989C109 44.4255 109.011 44.3574 109.021 44.2945C109.021 44.2316 109.042 44.1582 109.085 44.0744C109.338 43.3932 109.523 42.6963 109.639 41.9836C109.723 41.5749 109.818 41.1714 109.924 40.7731L110.114 40.05C110.389 38.9391 110.742 37.8439 111.175 36.7645C111.365 36.3138 111.523 35.8527 111.65 35.3811C111.745 35.0352 111.851 34.6946 111.967 34.3593L112.125 33.9191C112.241 33.5104 112.405 33.1121 112.616 32.7244C112.785 32.3995 112.875 32.0484 112.885 31.6711C112.906 31.189 113.012 30.7174 113.202 30.2563C113.403 29.7847 113.735 29.3235 114.2 28.8729L114.231 28.6371C113.883 28.5637 113.651 28.5061 113.535 28.4642L113.392 28.4327C113.276 28.4013 113.118 28.3856 112.917 28.3856C112.664 28.3856 112.521 28.2546 112.489 27.9926C112.489 27.7934 112.447 27.6205 112.363 27.4738C112.289 27.3271 112.178 27.1856 112.03 27.0493C111.83 26.8712 111.729 26.6773 111.729 26.4677C111.729 26.3105 111.777 26.1638 111.872 26.0275C111.967 25.8913 112.104 25.7917 112.284 25.7288C112.579 25.6345 112.869 25.5245 113.155 25.3987C113.44 25.2625 113.735 25.142 114.041 25.0372C114.348 24.9324 114.675 24.88 115.023 24.88C115.076 24.88 115.118 24.8695 115.15 24.8485C115.498 24.6703 115.852 24.5551 116.211 24.5027C116.57 24.4503 116.934 24.4241 117.304 24.4241L119.964 24.4398C120.598 24.4398 121.189 24.5498 121.738 24.7699C122.287 24.99 122.82 25.2625 123.337 25.5874C124.045 26.0695 124.625 26.6511 125.079 27.3323C125.248 27.5629 125.422 27.783 125.602 27.9926C125.908 28.3908 126.077 28.8729 126.109 29.4388L126.172 29.989C126.277 30.5026 126.33 31.0213 126.33 31.5453C126.309 32.1218 126.246 32.6982 126.14 33.2746C125.718 35.1401 124.958 36.8536 123.86 38.4151C123.395 39.0754 122.941 39.7461 122.498 40.4273C122.044 41.0771 121.516 41.6587 120.914 42.1723L120.297 42.7696C119.716 43.2832 119.077 43.6919 118.38 43.9958C117.979 44.1844 117.583 44.3993 117.193 44.6403L116.955 44.7975C116.628 44.9862 116.412 45.1905 116.306 45.4106C116.2 45.6202 116.037 45.7565 115.815 45.8194C115.688 45.8508 115.562 45.8927 115.435 45.9451C115.319 45.9975 115.071 46.0656 114.691 46.1495C113.983 46.2648 113.292 46.4639 112.616 46.7469C112.321 46.925 111.999 47.0141 111.65 47.0141L111.365 46.9984C111.154 46.9984 110.964 47.0717 110.795 47.2185C110.753 47.2499 110.705 47.2656 110.652 47.2656ZM114.01 42.8011L114.105 42.7853L114.295 42.7382C115.055 42.3819 115.778 41.9731 116.464 41.512C117.151 41.0509 117.747 40.4692 118.254 39.7671C118.37 39.6203 118.502 39.4841 118.65 39.3583C118.808 39.2326 119.009 38.9968 119.251 38.6509L119.346 38.5252C120.033 37.5505 120.608 36.5339 121.073 35.4754C121.548 34.4169 121.986 33.3375 122.387 32.237C122.662 31.5453 122.799 30.9637 122.799 30.4921C122.799 30.3663 122.788 30.2458 122.767 30.1305V29.0615C122.767 28.9043 122.73 28.7681 122.656 28.6528C122.582 28.5271 122.498 28.4118 122.403 28.307C122.308 28.1917 122.218 28.0659 122.134 27.9297H121.706C121.558 27.9297 121.426 27.9506 121.31 27.9926C120.993 28.1078 120.682 28.1655 120.376 28.1655L119.758 28.1498C119.336 28.1498 118.94 28.2388 118.571 28.417C118.359 28.5113 118.212 28.6685 118.127 28.8886L117.652 30.1777C116.628 33.0073 116.026 34.7523 115.847 35.4125C115.731 35.8317 115.509 36.5496 115.182 37.5662C114.622 39.2535 114.194 40.6736 113.899 41.8264L113.725 42.5338C113.725 42.6072 113.751 42.6701 113.804 42.7225C113.867 42.7749 113.936 42.8011 114.01 42.8011ZM118.681 27.6939C119.03 27.6939 119.41 27.6624 119.822 27.5996L120.36 27.5367L120.059 27.3323C119.911 27.2275 119.779 27.1437 119.663 27.0808C119.558 27.0179 119.442 26.9865 119.315 26.9865C118.861 26.9865 118.549 27.0389 118.38 27.1437C118.222 27.238 118.143 27.3323 118.143 27.4266C118.143 27.5734 118.322 27.6624 118.681 27.6939ZM110.637 39.1225C110.806 38.9548 110.948 38.7348 111.064 38.4623C111.191 38.1793 111.344 37.7863 111.523 37.2832C111.808 36.3505 112.484 34.6475 113.55 32.1742C112.738 33.7776 112.13 35.0195 111.729 35.8999C111.328 36.7697 111.054 37.4352 110.906 37.8963C110.769 38.3575 110.679 38.7662 110.637 39.1225Z" fill="#8012DA"/>
<path d="M126.029 46.9827C125.839 46.9827 125.644 46.9512 125.443 46.8883C125.317 46.8569 125.222 46.7521 125.158 46.5739C125.084 46.3958 124.979 46.291 124.842 46.2595L124.873 46.2438C124.789 46.0552 124.683 45.8718 124.557 45.6936C124.504 45.6412 124.44 45.6097 124.367 45.5993C124.303 45.5993 124.229 45.6202 124.145 45.6622C124.06 45.7041 123.986 45.725 123.923 45.725C123.828 45.725 123.781 45.6464 123.781 45.4892L123.796 45.3163C123.796 45.2325 123.781 45.1591 123.749 45.0962C123.707 45.0229 123.659 44.9495 123.606 44.8761C123.554 44.8028 123.511 44.7137 123.48 44.6089L123.464 44.4202C123.464 44.3678 123.474 44.3155 123.496 44.2631C123.675 43.9696 123.818 43.6604 123.923 43.3356C124.05 42.9268 124.24 42.5443 124.493 42.188C124.916 41.643 125.174 41.0142 125.269 40.3015C125.343 39.7985 125.533 39.3478 125.839 38.9496C126.441 38.1845 126.768 37.3094 126.821 36.3243C126.821 35.8946 126.932 35.3339 127.154 34.6422C128.875 29.2345 129.835 26.3315 130.036 25.9332C130.131 25.7341 130.21 25.5402 130.273 25.3516C130.337 25.1524 130.442 24.9848 130.59 24.8485C130.928 24.5446 131.192 24.3926 131.382 24.3926C131.477 24.3926 131.551 24.4241 131.604 24.4869C131.773 24.6756 131.978 24.8118 132.221 24.8957C132.369 24.9586 132.506 25.0319 132.633 25.1158C132.76 25.1996 132.855 25.3254 132.918 25.493C132.981 25.5978 133.071 25.6974 133.187 25.7917L133.33 25.9018C133.573 26.1533 133.747 26.3472 133.852 26.4834C133.969 26.6197 134.027 26.7716 134.027 26.9393C134.027 27.1594 133.953 27.4738 133.805 27.8825C133.129 30.031 132.385 32.1584 131.572 34.265C131.319 34.9462 131.092 35.6379 130.891 36.34C130.606 37.3356 129.878 39.4212 128.706 42.5967C128.653 42.7434 128.611 42.8849 128.579 43.0211L128.531 43.1312C128.268 44.1897 127.85 45.1381 127.28 45.9766C127.175 46.1128 127.106 46.2752 127.075 46.4639C127.064 46.5687 127.038 46.663 126.995 46.7469C126.964 46.8202 126.895 46.8674 126.789 46.8883C126.536 46.9512 126.283 46.9827 126.029 46.9827ZM126.109 39.4841C126.288 39.3164 126.441 39.0911 126.568 38.8081C126.694 38.5147 126.848 38.1059 127.027 37.5819C127.323 36.6178 128.019 34.8571 129.117 32.2999C128.273 33.9558 127.645 35.2396 127.233 36.1514C126.832 37.0527 126.557 37.7444 126.409 38.2265C126.262 38.6981 126.161 39.1173 126.109 39.4841Z" fill="#8012DA"/>
<path d="M136.893 30.162L136.988 30.1462L137.257 29.9104V29.7375L137.083 29.8004L136.893 30.162ZM137.004 43.4928C137.183 43.4928 137.431 43.4037 137.748 43.2255C138.265 42.9321 138.714 42.5495 139.094 42.0779C139.136 42.015 139.189 41.9522 139.253 41.8893C139.622 41.4386 139.965 40.9618 140.282 40.4587C140.398 40.2806 140.53 40.1077 140.678 39.94C141.079 39.4893 141.295 39.0649 141.327 38.6666C141.718 38.2893 141.987 37.8439 142.135 37.3304C142.198 37.1627 142.272 36.995 142.356 36.8274C143.117 35.0772 143.666 33.2798 144.003 31.4353L144.051 30.948V30.8694C144.051 30.5759 144.114 30.2877 144.241 30.0048C144.283 29.9 144.304 29.8056 144.304 29.7218C144.304 29.5646 144.22 29.3655 144.051 29.1244C143.935 28.9463 143.84 28.7262 143.766 28.4642C143.734 28.2127 143.639 28.0188 143.481 27.8825C143.365 27.7882 143.233 27.741 143.085 27.741C142.99 27.741 142.895 27.7725 142.8 27.8354L142.641 27.914C142.261 28.1131 141.929 28.3803 141.644 28.7157C141.39 29.0825 141.132 29.4441 140.868 29.8004C140.182 30.6807 139.575 31.6187 139.047 32.6143C138.814 33.1279 138.498 33.3846 138.096 33.3846L137.922 33.3689C137.817 33.3689 137.748 33.4265 137.716 33.5418C137.579 33.982 137.416 34.4169 137.225 34.8466C137.014 35.3287 136.835 35.8265 136.687 36.34C136.634 36.5392 136.571 36.7383 136.497 36.9374C136.423 37.126 136.355 37.3199 136.291 37.5191C136.238 37.7182 136.212 37.9278 136.212 38.1479C136.212 38.2631 136.223 38.3627 136.244 38.4465C136.265 38.5199 136.275 38.5985 136.275 38.6824C136.275 38.7662 136.259 38.85 136.228 38.9339C136.101 39.1959 136.038 39.4684 136.038 39.7513L136.054 40.4273C136.054 40.6474 136.017 40.8308 135.943 40.9775C135.879 41.1242 135.848 41.271 135.848 41.4177C135.848 41.7006 135.901 41.9836 136.006 42.2666C136.08 42.4971 136.128 42.7277 136.149 42.9583C136.18 43.1888 136.27 43.3356 136.418 43.3984C136.566 43.4613 136.761 43.4928 137.004 43.4928ZM137.178 47.0298C136.175 47.0298 135.23 46.7259 134.343 46.118C134.027 45.9084 133.604 45.2953 133.076 44.2788C132.823 43.7757 132.649 43.2465 132.554 42.691C132.522 42.4605 132.475 42.2351 132.411 42.015C132.285 41.4806 132.221 40.9618 132.221 40.4587C132.221 40.1967 132.248 39.9505 132.3 39.7199C132.269 39.4684 132.253 39.2221 132.253 38.981C132.253 38.2893 132.348 37.6239 132.538 36.9846C133.478 33.8615 134.502 31.5506 135.61 30.0519C135.758 29.8318 135.885 29.6065 135.99 29.3759C136.191 28.9463 136.471 28.5742 136.83 28.2598C137.178 27.4319 137.738 26.8031 138.508 26.3734C138.709 26.2267 138.857 26.0485 138.952 25.8389C139.131 25.5035 139.416 25.2834 139.807 25.1786C140.124 25.0948 140.335 24.9743 140.44 24.8171C140.546 24.6599 140.709 24.5655 140.931 24.5341C141.744 24.3245 142.467 24.2197 143.101 24.2197C144.135 24.2197 145.165 24.6075 146.189 25.383C146.484 25.624 146.711 25.9175 146.87 26.2633C147.313 27.0703 147.614 27.8668 147.772 28.6528C147.709 28.7891 147.677 28.9305 147.677 29.0773C147.677 29.2659 147.704 29.4546 147.757 29.6432C147.809 29.8318 147.836 30.0414 147.836 30.272C147.836 30.5026 147.841 30.7017 147.852 30.8694C147.862 31.0266 147.867 31.1838 147.867 31.341C147.867 31.5401 147.846 31.7445 147.804 31.9541C147.656 32.7086 147.582 33.4999 147.582 34.3278C147.582 34.485 147.577 34.5794 147.567 34.6108C147.366 35.1034 147.223 35.6117 147.139 36.1357C147.023 36.8064 146.928 37.1837 146.854 37.2675C146.78 37.3409 146.743 37.4142 146.743 37.4876C146.732 37.9383 146.632 38.3522 146.442 38.7295C146.263 39.0963 146.052 39.4474 145.809 39.7828C145.682 39.9714 145.55 40.181 145.413 40.4116C145.286 40.6317 145.144 40.8622 144.985 41.1033C144.837 41.3338 144.695 41.5696 144.558 41.8107C144.199 42.429 143.761 42.9792 143.243 43.4613C143.064 43.6395 142.905 43.8386 142.768 44.0587C142.631 44.2683 142.457 44.4674 142.246 44.6561C141.454 45.3163 140.636 45.877 139.791 46.3381C138.946 46.7993 138.075 47.0298 137.178 47.0298ZM133.615 39.4684C133.773 39.2797 133.905 39.0439 134.011 38.761C134.116 38.4675 134.232 38.064 134.359 37.5505C134.591 36.5968 135.146 34.8309 136.022 32.2528C135.325 33.9296 134.808 35.2239 134.47 36.1357C134.143 37.0474 133.921 37.7391 133.805 38.2107C133.699 38.6824 133.636 39.1016 133.615 39.4684Z" fill="#8012DA"/>
<defs>
<linearGradient id="paint0_linear_412_121" x1="50.2551" y1="35.444" x2="50.2551" y2="52.8474" gradientUnits="userSpaceOnUse">
<stop stop-color="#430377"/>
<stop offset="1" stop-color="#7C06DD"/>
</linearGradient>
<linearGradient id="paint1_linear_412_121" x1="31.0691" y1="3.4375" x2="31.0691" y2="48.2436" gradientUnits="userSpaceOnUse">
<stop stop-color="white"/>
<stop offset="1" stop-color="#CACACA"/>
</linearGradient>
<linearGradient id="paint2_linear_412_121" x1="31.0691" y1="11.6163" x2="31.0691" y2="12.6163" gradientUnits="userSpaceOnUse">
<stop stop-color="white"/>
<stop offset="1" stop-color="#CACACA"/>
</linearGradient>
</defs>
</svg>
