<svg width="40" height="40" viewBox="0 0 40 40" fill="none" xmlns="http://www.w3.org/2000/svg">
<path d="M9.34621 34.563C9.34621 35.4391 9.69423 36.2793 10.3137 36.8987C10.9332 37.5182 11.7734 37.8662 12.6495 37.8662C13.5255 37.8662 14.3657 37.5182 14.9852 36.8987C15.6047 36.2793 15.9527 35.4391 15.9527 34.563M20.9076 34.563C20.9076 35.4391 21.2556 36.2793 21.8751 36.8987C22.4946 37.5182 23.3348 37.8662 24.2109 37.8662C25.087 37.8662 25.9272 37.5182 26.5466 36.8987C27.1661 36.2793 27.5141 35.4391 27.5141 34.563M11.8237 12.266H37.4239V12.6789L37.0292 13.1463C33.0169 17.9113 30.8169 23.9404 30.8174 30.1696V30.4339H9.34621V27.3288C9.34621 23.8935 9.2372 20.4614 8.70868 17.0689C7.79368 11.1957 5.77374 2.3562 1.91388 2.3562" stroke="#0085D3" stroke-width="2"/>
</svg>
