<svg width="40" height="41" viewBox="0 0 40 41" fill="none" xmlns="http://www.w3.org/2000/svg">
<path d="M3.18132 33.5008C3.35309 35.6108 4.96756 37.2252 7.07751 37.397C9.74324 37.6134 13.997 37.8421 20.0783 37.8421C26.1596 37.8421 30.4134 37.6134 33.0791 37.397C35.1891 37.2252 36.8035 35.6108 36.9753 33.5008C37.1917 30.8351 37.4204 26.5813 37.4204 20.5C37.4204 14.4187 37.1917 10.1649 36.9753 7.49921C36.8035 5.38925 35.1891 3.77478 33.0791 3.60301C30.4134 3.38665 26.1596 3.1579 20.0783 3.1579C13.997 3.1579 9.74324 3.38665 7.07751 3.60301C4.96756 3.77478 3.35309 5.38925 3.18132 7.49921C2.96496 10.1649 2.73621 14.4187 2.73621 20.5C2.73621 26.5813 2.96496 30.8351 3.18132 33.5008Z" stroke="#0085D3" stroke-width="2" stroke-linejoin="round"/>
<path d="M3.14911 11.829H37.0075H3.14911Z" fill="#0085D3"/>
<path d="M3.14911 11.829H37.0075" stroke="#0085D3" stroke-width="2" stroke-linecap="round"/>
<path d="M8.51691 7.69989H10.1685H8.51691ZM15.1234 7.69989H16.7751H15.1234Z" fill="#0085D3"/>
<path d="M8.51691 7.69989H10.1685M15.1234 7.69989H16.7751" stroke="#0085D3" stroke-width="2" stroke-linecap="round" stroke-linejoin="round"/>
</svg>
