<svg width="40" height="40" viewBox="0 0 40 40" fill="none" xmlns="http://www.w3.org/2000/svg">
<g clip-path="url(#clip0_288_81)">
<path d="M33.7998 5.71375C34.1349 5.74239 34.4581 5.85142 34.7422 6.03113H34.7432C35.026 6.22227 35.2582 6.48003 35.4189 6.78113C35.5796 7.08207 35.6644 7.41753 35.666 7.75867V28.8192C35.6549 29.1482 35.5669 29.4701 35.4082 29.7587C35.2484 30.0493 35.0216 30.2982 34.7471 30.4843C34.3958 30.7198 33.9842 30.8495 33.5615 30.8593C33.2928 30.8567 33.0268 30.8055 32.7764 30.7079L17.7129 24.6884L16.3418 24.1405V31.8846C16.3418 32.4377 16.1238 32.9685 15.7344 33.3612C15.3448 33.754 14.8149 33.9769 14.2617 33.9813H12.7158C12.3168 33.9786 11.9264 33.8637 11.5898 33.6493C11.2953 33.4616 11.0525 33.2042 10.8818 32.9012L10.8135 32.7694L7.09766 24.8925L6.82715 24.3192H6.19336C5.64601 24.3194 5.12029 24.1057 4.72852 23.7235C4.38561 23.3888 4.16882 22.9481 4.11133 22.4764L4.09668 22.2733V20.9745H1V15.5428H4.09668V14.2948C4.09669 13.7388 4.31779 13.2056 4.71094 12.8124C5.10411 12.4192 5.63734 12.1982 6.19336 12.1981L15.9795 12.1971C16.5006 12.1985 17.017 12.0983 17.499 11.9003L17.498 11.8993L32.7715 5.88562L32.7852 5.87976L32.7979 5.87488C33.1136 5.73998 33.4577 5.68453 33.7998 5.71375ZM8.73047 25.7401L11.7773 32.3055L12.0459 32.8846H15.2451V24.3192H8.07031L8.73047 25.7401ZM33.1992 6.82507L17.8887 12.9198C17.6453 13.0147 17.3944 13.0893 17.1387 13.1425L16.3418 13.3075V23.036L17.0479 23.2528C17.3081 23.3328 17.5612 23.4356 17.8037 23.5594L17.8457 23.58L17.8887 23.5975L33.1992 29.6923L34.5693 30.2372V6.28015L33.1992 6.82507ZM5.19336 23.2968H15.2451V13.2948H5.19336V23.2968ZM37.7402 16.4159C37.9161 16.5113 38.0796 16.6322 38.2236 16.7762C38.6166 17.1694 38.8369 17.7027 38.8369 18.2587C38.8369 18.8146 38.6166 19.3479 38.2236 19.7411C38.0797 19.885 37.9159 20.0051 37.7402 20.1005V16.4159Z" stroke="#0085D3" stroke-width="2"/>
</g>
<defs>
<clipPath id="clip0_288_81">
<rect width="39.6391" height="39.6391" fill="white"/>
</clipPath>
</defs>
</svg>
