<svg width="89" height="89" viewBox="0 0 89 89" fill="none" xmlns="http://www.w3.org/2000/svg">
<g opacity="0.6">
<path opacity="0.25" d="M44.5 9.6416C37.6057 9.6416 30.8662 11.686 25.1338 15.5163C19.4013 19.3466 14.9335 24.7907 12.2951 31.1602C9.65677 37.5298 8.96645 44.5386 10.3115 51.3005C11.6565 58.0623 14.9764 64.2735 19.8514 69.1485C24.7265 74.0235 30.9376 77.3435 37.6995 78.6885C44.4613 80.0335 51.4702 79.3432 57.8397 76.7048C64.2092 74.0665 69.6534 69.5986 73.4837 63.8662C77.3139 58.1338 79.3583 51.3943 79.3583 44.4999C79.3583 35.2549 75.6858 26.3886 69.1486 19.8514C62.6114 13.3142 53.745 9.6416 44.5 9.6416Z" fill="#C5C5C5"/>
<path d="M45.0414 47.2033L35.7706 74.1444C41.9957 75.9763 48.6393 75.8037 54.7609 73.6512C54.6776 73.514 54.6033 73.3715 54.5384 73.2247L45.0414 47.2033ZM13.5947 44.4963C13.5923 50.3007 15.2253 55.9884 18.3066 60.9075C21.3879 65.8265 25.7928 69.7779 31.0165 72.3088L16.2721 31.9287C14.5062 35.8843 13.5951 40.1681 13.5984 44.5" fill="#404040"/>
<path d="M65.3631 42.9427C65.3201 39.9198 64.4381 36.9682 62.8155 34.4173C61.1538 32.3284 60.1027 29.8205 59.7784 27.1712C59.7414 25.7556 60.2671 24.3831 61.2402 23.3544C62.2134 22.3256 63.5546 21.7246 64.97 21.6828C65.1072 21.6828 65.237 21.7014 65.3668 21.7088C62.0678 18.6861 58.1514 16.4161 53.8887 15.056C49.626 13.6959 45.1187 13.278 40.6786 13.8314C36.2385 14.3847 31.9716 15.896 28.1731 18.2608C24.3746 20.6255 21.1352 23.7872 18.6789 27.5272C19.4057 27.5494 20.0881 27.5643 20.6703 27.5643C23.9002 27.5643 28.9028 27.1712 28.9028 27.1712C29.2401 27.1446 29.5742 27.2532 29.8315 27.4729C30.0888 27.6927 30.2483 28.0057 30.2748 28.343C30.3014 28.6804 30.1929 29.0144 29.9731 29.2718C29.7533 29.5291 29.4404 29.6885 29.103 29.7151C29.103 29.7151 27.4269 29.9116 25.5653 30.0118L36.8201 63.4832L43.5841 43.1986L38.7669 30.0118C37.1019 29.9116 35.5259 29.7151 35.5259 29.7151C35.1885 29.689 34.8753 29.53 34.6552 29.2731C34.4351 29.0161 34.3261 28.6822 34.3522 28.3449C34.3782 28.0075 34.5372 27.6944 34.7942 27.4742C35.0512 27.2541 35.385 27.1451 35.7224 27.1712C35.7224 27.1712 40.8251 27.5643 43.8622 27.5643C47.0921 27.5643 52.0984 27.1712 52.0984 27.1712C52.4357 27.1451 52.7696 27.2541 53.0266 27.4742C53.2836 27.6944 53.4426 28.0075 53.4686 28.3449C53.4947 28.6822 53.3857 29.0161 53.1656 29.2731C52.9455 29.53 52.6323 29.689 52.2949 29.7151C52.2949 29.7151 50.6188 29.9116 48.7609 30.0118L59.9267 63.2273L63.1159 53.1258C64.3611 49.859 65.1183 46.4302 65.3631 42.9427Z" fill="#404040"/>
<path d="M44.5 7.4165C37.1656 7.4165 29.9959 9.5914 23.8976 13.6662C17.7993 17.7409 13.0462 23.5326 10.2394 30.3087C7.43269 37.0848 6.69832 44.541 8.12919 51.7344C9.56006 58.9279 13.0919 65.5355 18.2781 70.7217C23.4643 75.9079 30.0719 79.4398 37.2654 80.8706C44.4588 82.3015 51.9151 81.5671 58.6912 78.7604C65.4672 75.9536 71.2589 71.2006 75.3336 65.1022C79.4084 59.0039 81.5833 51.8342 81.5833 44.4998C81.5833 39.63 80.6241 34.8078 78.7605 30.3087C76.8969 25.8095 74.1654 21.7215 70.7218 18.278C67.2783 14.8345 63.1903 12.1029 58.6912 10.2393C54.192 8.37569 49.3698 7.4165 44.5 7.4165ZM73.4064 63.9871C69.6232 69.5931 64.2955 73.9818 58.0688 76.6214C52.727 78.8809 46.9054 79.7703 41.1327 79.2088C35.36 78.6473 29.8189 76.6528 25.0127 73.4063C19.4067 69.623 15.0181 64.2954 12.3784 58.0686C10.1189 52.7269 9.22955 46.9053 9.79102 41.1326C10.3525 35.3598 12.347 29.8188 15.5935 25.0125C19.3768 19.4066 24.7045 15.0179 30.9312 12.3783C36.273 10.1188 42.0945 9.22941 47.8672 9.79088C53.64 10.3524 59.181 12.3469 63.9873 15.5934C69.5932 19.3766 73.9819 24.7043 76.6216 30.931C78.881 36.2728 79.7704 42.0944 79.2089 47.8671C78.6475 53.6398 76.6529 59.1809 73.4064 63.9871Z" fill="#404040"/>
<path d="M71.8267 32.8524C71.7699 36.6599 70.9713 40.4198 69.4756 43.9217L60.0379 71.2076C66.9992 67.1583 72.1049 60.5516 74.2679 52.7942C76.431 45.0368 75.4806 36.7415 71.619 29.6743C71.7641 30.7273 71.8335 31.7894 71.8267 32.8524Z" fill="#404040"/>
</g>
</svg>
